<svg xmlns="http://www.w3.org/2000/svg" xmlns:xlink="http://www.w3.org/1999/xlink" width="1366" zoomAndPan="magnify" viewBox="0 0 1024.5 576" height="768" preserveAspectRatio="xMidYMid meet" version="1.0"><defs><g/><clipPath id="84f66b1a63"><path d="M 0 0.140625 L 1024 0.140625 L 1024 575.859375 L 0 575.859375 Z M 0 0.140625 " clip-rule="nonzero"/></clipPath><clipPath id="6b641b6a33"><path d="M 428.613281 127.511719 L 577.296875 127.511719 L 577.296875 257.527344 L 428.613281 257.527344 Z M 428.613281 127.511719 " clip-rule="nonzero"/></clipPath><clipPath id="b48db808bb"><path d="M 412.328125 134.414062 L 558.476562 134.414062 L 558.476562 281.261719 L 412.328125 281.261719 Z M 412.328125 134.414062 " clip-rule="nonzero"/></clipPath></defs><g clip-path="url(#84f66b1a63)"><path fill="#ffffff" d="M 0 0.140625 L 1024.5 0.140625 L 1024.5 576.140625 L 0 576.140625 Z M 0 0.140625 " fill-opacity="1" fill-rule="nonzero"/><path fill="#ffffff" d="M 0 0.140625 L 1024.5 0.140625 L 1024.5 576.140625 L 0 576.140625 Z M 0 0.140625 " fill-opacity="1" fill-rule="nonzero"/></g><g clip-path="url(#6b641b6a33)"><path fill="#299740" d="M 576.5 129.464844 C 574.148438 128.851562 571.792969 128.238281 569.441406 127.628906 C 569.257812 127.523438 569.03125 127.480469 568.769531 127.53125 C 568.648438 127.542969 568.539062 127.578125 568.441406 127.625 C 567.984375 127.773438 567.53125 127.9375 567.082031 128.105469 C 565.546875 128.675781 564.039062 129.304688 562.550781 129.96875 C 560.3125 130.96875 558.121094 132.0625 555.96875 133.214844 C 553.078125 134.769531 550.265625 136.441406 547.523438 138.210938 C 544.101562 140.421875 540.792969 142.78125 537.597656 145.265625 C 533.871094 148.164062 530.308594 151.234375 526.90625 154.453125 C 522.984375 158.160156 519.28125 162.058594 515.792969 166.117188 C 511.832031 170.71875 508.140625 175.511719 504.726562 180.472656 C 500.875 186.058594 497.367188 191.847656 494.1875 197.78125 C 490.605469 204.464844 487.429688 211.335938 484.625 218.324219 C 484.078125 219.683594 483.546875 221.050781 483.03125 222.421875 C 481.21875 221.003906 479.410156 219.589844 477.601562 218.171875 C 472.855469 214.460938 468.109375 210.746094 463.367188 207.035156 C 459.003906 203.625 454.644531 200.210938 450.285156 196.800781 C 449.175781 195.933594 448.066406 195.066406 446.960938 194.199219 C 446.675781 193.976562 446.429688 193.765625 446.078125 193.632812 C 444.976562 193.21875 443.839844 192.679688 442.695312 192.386719 C 442.261719 192.277344 441.714844 192.425781 441.273438 192.496094 C 440.511719 192.613281 439.746094 192.730469 438.980469 192.847656 C 438.496094 192.921875 437.84375 192.917969 437.441406 193.207031 C 437.222656 193.363281 437.117188 193.566406 436.984375 193.78125 C 435.761719 195.789062 434.539062 197.796875 433.316406 199.804688 C 431.953125 202.039062 430.589844 204.277344 429.226562 206.515625 C 428.910156 207.039062 428.542969 207.472656 428.65625 208.105469 C 428.785156 208.835938 428.941406 209.566406 429.085938 210.300781 C 429.628906 213.09375 430.175781 215.890625 430.722656 218.6875 C 430.890625 219.546875 431.023438 220.421875 431.230469 221.277344 C 431.351562 221.777344 431.722656 222.039062 432.214844 222.222656 C 432.648438 222.382812 433.078125 222.542969 433.507812 222.703125 C 433.660156 222.761719 433.8125 222.820312 433.964844 222.878906 C 434.046875 222.910156 434.128906 222.945312 434.214844 222.976562 C 434.257812 222.992188 434.300781 223.011719 434.34375 223.027344 C 434.351562 223.027344 434.355469 223.03125 434.359375 223.03125 C 434.792969 223.203125 435.222656 223.371094 435.65625 223.542969 C 438.101562 224.515625 440.523438 225.535156 442.929688 226.589844 C 450.152344 229.753906 457.214844 233.242188 464.027344 237.105469 C 472.042969 241.652344 479.769531 246.726562 486.625 252.6875 C 488.269531 254.113281 489.855469 255.597656 491.378906 257.136719 C 491.90625 257.667969 492.996094 257.414062 493.167969 256.703125 C 493.378906 255.800781 493.617188 254.90625 493.859375 254.011719 C 494.535156 251.527344 495.265625 249.054688 496.035156 246.589844 C 497.207031 242.839844 498.46875 239.113281 499.816406 235.410156 C 501.523438 230.710938 503.363281 226.050781 505.339844 221.441406 C 507.605469 216.140625 510.054688 210.90625 512.695312 205.757812 C 515.59375 200.101562 518.71875 194.542969 522.109375 189.125 C 525.640625 183.476562 529.457031 177.976562 533.605469 172.695312 C 537.828125 167.324219 542.402344 162.183594 547.371094 157.378906 C 552.347656 152.570312 557.722656 148.089844 563.527344 144.136719 C 566.457031 142.140625 569.492188 140.277344 572.628906 138.566406 C 573.351562 138.175781 574.429688 137.824219 574.769531 137.089844 C 574.886719 136.839844 574.96875 136.574219 575.066406 136.320312 C 575.519531 135.15625 575.96875 133.992188 576.417969 132.828125 C 576.695312 132.109375 576.972656 131.390625 577.246094 130.675781 C 577.441406 130.171875 577.027344 129.597656 576.5 129.464844 " fill-opacity="1" fill-rule="nonzero"/></g><g clip-path="url(#b48db808bb)"><path fill="#299740" d="M 544.199219 164.335938 C 541.261719 167.480469 538.402344 170.816406 535.652344 174.316406 C 535.578125 174.417969 535.5 174.515625 535.421875 174.617188 C 541.730469 184.15625 545.410156 195.597656 545.410156 207.882812 C 545.410156 241.125 518.484375 268.171875 485.386719 268.171875 C 452.289062 268.171875 425.363281 241.125 425.363281 207.882812 C 425.363281 174.640625 452.289062 147.597656 485.386719 147.597656 C 498.007812 147.597656 509.730469 151.527344 519.40625 158.238281 C 521.273438 156.277344 523.183594 154.375 525.117188 152.546875 C 526.390625 151.339844 527.6875 150.160156 529 149 C 524.320312 145.496094 519.246094 142.574219 513.824219 140.273438 C 504.816406 136.445312 495.246094 134.503906 485.386719 134.503906 C 475.527344 134.503906 465.957031 136.445312 456.945312 140.273438 C 448.246094 143.96875 440.433594 149.257812 433.726562 155.996094 C 427.019531 162.734375 421.75 170.578125 418.070312 179.316406 C 414.261719 188.371094 412.328125 197.980469 412.328125 207.882812 C 412.328125 217.789062 414.261719 227.398438 418.070312 236.449219 C 421.75 245.1875 427.019531 253.035156 433.726562 259.769531 C 440.433594 266.507812 448.246094 271.796875 456.945312 275.492188 C 465.957031 279.324219 475.527344 281.265625 485.386719 281.265625 C 495.246094 281.265625 504.8125 279.324219 513.824219 275.492188 C 522.527344 271.796875 530.339844 266.507812 537.046875 259.769531 C 543.753906 253.035156 549.019531 245.1875 552.699219 236.449219 C 556.511719 227.398438 558.445312 217.789062 558.445312 207.882812 C 558.445312 197.980469 556.511719 188.371094 552.699219 179.316406 C 550.449219 173.972656 547.605469 168.964844 544.199219 164.335938 " fill-opacity="1" fill-rule="nonzero"/></g><g fill="#0a1a44" fill-opacity="1"><g transform="translate(333.213535, 110.68591)"><g><path d="M 15.664062 0 L 15.664062 -22.535156 L 29.335938 -22.535156 C 39.902344 -22.535156 47.214844 -28.890625 47.214844 -39.753906 C 47.214844 -51.425781 39.902344 -56.378906 29.335938 -56.378906 L 5.023438 -56.378906 L 5.023438 0 Z M 15.664062 -46.847656 L 27.855469 -46.847656 C 33.472656 -46.847656 36.648438 -44.1875 36.648438 -39.382812 C 36.648438 -34.433594 33.546875 -31.847656 27.855469 -31.847656 L 15.664062 -31.847656 Z M 15.664062 -46.847656 "/></g></g></g><g fill="#0a1a44" fill-opacity="1"><g transform="translate(382.422025, 110.68591)"><g><path d="M 24.015625 0.8125 C 36.722656 0.8125 45.292969 -8.054688 45.292969 -20.984375 C 45.292969 -33.472656 36.574219 -42.339844 24.015625 -42.339844 C 11.453125 -42.339844 2.808594 -33.546875 2.808594 -20.984375 C 2.808594 -7.980469 11.527344 0.8125 24.015625 0.8125 Z M 24.015625 -7.757812 C 17.585938 -7.757812 13.003906 -13.078125 13.003906 -20.984375 C 13.003906 -28.449219 17.585938 -33.769531 24.015625 -33.769531 C 30.589844 -33.769531 34.949219 -28.375 34.949219 -20.984375 C 34.949219 -13.226562 30.515625 -7.757812 24.015625 -7.757812 Z M 24.015625 -7.757812 "/></g></g></g><g fill="#0a1a44" fill-opacity="1"><g transform="translate(430.596107, 110.68591)"><g><path d="M 22.460938 0.8125 C 33.175781 0.8125 39.53125 -4.507812 39.53125 -12.5625 C 39.53125 -22.09375 30.664062 -23.71875 23.347656 -25.121094 C 18.25 -26.082031 13.816406 -26.894531 13.816406 -30.292969 C 13.816406 -32.882812 16.253906 -34.507812 20.246094 -34.507812 C 24.308594 -34.507812 27.855469 -32.734375 29.039062 -28.226562 L 38.421875 -28.226562 C 36.945312 -37.242188 30 -42.339844 20.320312 -42.339844 C 11.75 -42.339844 4.285156 -38.570312 4.285156 -29.925781 C 4.285156 -20.6875 12.710938 -18.914062 19.875 -17.511719 C 25.121094 -16.476562 29.703125 -15.515625 29.703125 -11.824219 C 29.703125 -8.71875 26.601562 -7.019531 22.386719 -7.019531 C 17.289062 -7.019531 13.667969 -9.457031 12.414062 -13.964844 L 2.585938 -13.964844 C 3.988281 -3.546875 13.003906 0.8125 22.460938 0.8125 Z M 22.460938 0.8125 "/></g></g></g><g fill="#0a1a44" fill-opacity="1"><g transform="translate(473.154803, 110.68591)"><g><path d="M 25.714844 0 L 25.714844 -8.277344 L 21.207031 -8.277344 C 18.101562 -8.277344 17.808594 -9.976562 17.808594 -12.117188 L 17.808594 -33.472656 L 25.789062 -33.472656 L 25.789062 -41.453125 L 17.808594 -41.453125 L 17.808594 -56.378906 L 7.832031 -56.378906 L 7.832031 -41.453125 L 1.699219 -41.453125 L 1.699219 -33.472656 L 7.832031 -33.472656 L 7.832031 -9.089844 C 7.832031 -2.660156 11.378906 0 17.511719 0 Z M 25.714844 0 "/></g></g></g><g fill="#0a1a44" fill-opacity="1"><g transform="translate(501.453383, 110.68591)"><g/></g></g><g fill="#0a1a44" fill-opacity="1"><g transform="translate(521.255002, 110.68591)"><g><path d="M 7.980469 0 C 20.171875 0 24.382812 -4.0625 24.382812 -15.074219 L 24.382812 -56.378906 L 13.742188 -56.378906 L 13.742188 -15.222656 C 13.742188 -11.15625 11.675781 -9.53125 7.980469 -9.53125 L 0.8125 -9.53125 L 0.8125 0 Z M 7.980469 0 "/></g></g></g><g fill="#0a1a44" fill-opacity="1"><g transform="translate(550.366342, 110.68591)"><g><path d="M 24.015625 0.8125 C 36.722656 0.8125 45.292969 -8.054688 45.292969 -20.984375 C 45.292969 -33.472656 36.574219 -42.339844 24.015625 -42.339844 C 11.453125 -42.339844 2.808594 -33.546875 2.808594 -20.984375 C 2.808594 -7.980469 11.527344 0.8125 24.015625 0.8125 Z M 24.015625 -7.757812 C 17.585938 -7.757812 13.003906 -13.078125 13.003906 -20.984375 C 13.003906 -28.449219 17.585938 -33.769531 24.015625 -33.769531 C 30.589844 -33.769531 34.949219 -28.375 34.949219 -20.984375 C 34.949219 -13.226562 30.515625 -7.757812 24.015625 -7.757812 Z M 24.015625 -7.757812 "/></g></g></g><g fill="#0a1a44" fill-opacity="1"><g transform="translate(598.540424, 110.68591)"><g><path d="M 26.304688 0.8125 C 37.167969 0.8125 44.554688 -8.054688 44.554688 -20.761719 C 44.554688 -33.472656 37.167969 -42.339844 26.304688 -42.339844 C 21.429688 -42.339844 17.882812 -40.933594 14.554688 -36.207031 L 14.554688 -56.378906 L 4.582031 -56.378906 L 4.582031 0 L 14.554688 0 L 14.554688 -5.246094 C 17.882812 -0.589844 21.429688 0.8125 26.304688 0.8125 Z M 24.015625 -7.757812 C 17.660156 -7.757812 13.300781 -13.078125 13.300781 -20.761719 C 13.300781 -28.449219 17.660156 -33.769531 24.015625 -33.769531 C 30.367188 -33.769531 34.507812 -28.300781 34.507812 -20.761719 C 34.507812 -13.226562 30.367188 -7.757812 24.015625 -7.757812 Z M 24.015625 -7.757812 "/></g></g></g><g fill="#0a1a44" fill-opacity="1"><g transform="translate(646.049513, 110.68591)"><g><path d="M 22.460938 0.8125 C 33.175781 0.8125 39.53125 -4.507812 39.53125 -12.5625 C 39.53125 -22.09375 30.664062 -23.71875 23.347656 -25.121094 C 18.25 -26.082031 13.816406 -26.894531 13.816406 -30.292969 C 13.816406 -32.882812 16.253906 -34.507812 20.246094 -34.507812 C 24.308594 -34.507812 27.855469 -32.734375 29.039062 -28.226562 L 38.421875 -28.226562 C 36.945312 -37.242188 30 -42.339844 20.320312 -42.339844 C 11.75 -42.339844 4.285156 -38.570312 4.285156 -29.925781 C 4.285156 -20.6875 12.710938 -18.914062 19.875 -17.511719 C 25.121094 -16.476562 29.703125 -15.515625 29.703125 -11.824219 C 29.703125 -8.71875 26.601562 -7.019531 22.386719 -7.019531 C 17.289062 -7.019531 13.667969 -9.457031 12.414062 -13.964844 L 2.585938 -13.964844 C 3.988281 -3.546875 13.003906 0.8125 22.460938 0.8125 Z M 22.460938 0.8125 "/></g></g></g><g fill="#0a1a44" fill-opacity="1"><g transform="translate(211.209806, 330.170532)"><g><path d="M 4.746094 0 L 4.746094 -24.464844 L 2.53125 -24.464844 L 2.53125 0 Z M 4.746094 0 "/></g></g></g><g fill="#0a1a44" fill-opacity="1"><g transform="translate(218.808663, 330.170532)"><g><path d="M 9.90625 0 L 9.90625 -1.859375 L 8.144531 -1.859375 C 5.996094 -1.859375 5.804688 -2.820312 5.804688 -4.839844 L 5.804688 -15.742188 L 9.9375 -15.742188 L 9.9375 -17.601562 L 5.804688 -17.601562 L 5.804688 -24.464844 L 3.71875 -24.464844 L 3.71875 -17.601562 L 0.867188 -17.601562 L 0.867188 -15.742188 L 3.71875 -15.742188 L 3.71875 -4.425781 C 3.71875 -0.898438 5 0 7.664062 0 Z M 9.90625 0 "/></g></g></g><g fill="#0a1a44" fill-opacity="1"><g transform="translate(230.190879, 330.170532)"><g/></g></g><g fill="#0a1a44" fill-opacity="1"><g transform="translate(239.45698, 330.170532)"><g><path d="M 3.367188 -21.675781 C 4.230469 -21.675781 4.9375 -22.378906 4.9375 -23.246094 C 4.9375 -24.078125 4.230469 -24.785156 3.367188 -24.785156 C 2.5 -24.785156 1.796875 -24.078125 1.796875 -23.246094 C 1.796875 -22.378906 2.5 -21.675781 3.367188 -21.675781 Z M 4.390625 0 L 4.390625 -17.601562 L 2.308594 -17.601562 L 2.308594 0 Z M 4.390625 0 "/></g></g></g><g fill="#0a1a44" fill-opacity="1"><g transform="translate(246.446645, 330.170532)"><g><path d="M 9.136719 0.320312 C 13.433594 0.320312 15.808594 -1.761719 15.808594 -4.90625 C 15.808594 -8.753906 12.3125 -9.457031 9.167969 -10.101562 C 6.574219 -10.613281 4.199219 -11.09375 4.199219 -13.242188 C 4.199219 -15.003906 5.769531 -16.0625 8.367188 -16.0625 C 10.996094 -16.0625 12.761719 -14.8125 13.144531 -12.472656 L 15.230469 -12.472656 C 14.683594 -15.773438 12.183594 -17.921875 8.367188 -17.921875 C 4.808594 -17.921875 2.117188 -16.191406 2.117188 -13.015625 C 2.117188 -9.585938 5.324219 -8.914062 8.367188 -8.304688 C 11.125 -7.757812 13.722656 -7.214844 13.722656 -4.714844 C 13.722656 -2.660156 11.992188 -1.539062 9.234375 -1.539062 C 5.738281 -1.539062 3.910156 -3.078125 3.558594 -5.546875 L 1.441406 -5.546875 C 1.890625 -1.890625 4.679688 0.320312 9.136719 0.320312 Z M 9.136719 0.320312 "/></g></g></g><g fill="#0a1a44" fill-opacity="1"><g transform="translate(264.145151, 330.170532)"><g/></g></g><g fill="#0a1a44" fill-opacity="1"><g transform="translate(273.411253, 330.170532)"><g><path d="M 5.867188 0 L 5.867188 -15.742188 L 10.324219 -15.742188 L 10.324219 -17.601562 L 5.867188 -17.601562 L 5.867188 -19.816406 C 5.867188 -22.125 7.023438 -22.605469 8.65625 -22.605469 L 10.324219 -22.605469 L 10.324219 -24.464844 L 8.207031 -24.464844 C 5.257812 -24.464844 3.785156 -22.796875 3.785156 -19.589844 L 3.785156 -17.601562 L 0.832031 -17.601562 L 0.832031 -15.742188 L 3.785156 -15.742188 L 3.785156 0 Z M 5.867188 0 "/></g></g></g><g fill="#0a1a44" fill-opacity="1"><g transform="translate(284.697284, 330.170532)"><g><path d="M 9.777344 -17.921875 C 7.308594 -17.921875 5.515625 -16.929688 4.359375 -14.972656 L 4.359375 -17.601562 L 2.277344 -17.601562 L 2.277344 0 L 4.359375 0 L 4.359375 -8.59375 C 4.359375 -11.222656 4.777344 -13.050781 5.804688 -14.332031 C 6.636719 -15.390625 7.886719 -15.871094 9.554688 -15.871094 L 10.355469 -15.871094 L 10.355469 -17.921875 Z M 9.777344 -17.921875 "/></g></g></g><g fill="#0a1a44" fill-opacity="1"><g transform="translate(296.047436, 330.170532)"><g><path d="M 9.9375 0.320312 C 14.171875 0.320312 16.863281 -2.277344 17.890625 -5.546875 L 15.679688 -5.546875 C 14.878906 -3.335938 12.855469 -1.539062 9.9375 -1.539062 C 7.246094 -1.539062 5.066406 -3.238281 4.105469 -5.996094 C 3.816406 -6.796875 3.65625 -7.535156 3.589844 -8.433594 L 18.277344 -8.433594 C 18.277344 -8.785156 18.277344 -9.167969 18.242188 -9.523438 C 17.828125 -14.429688 14.75 -17.921875 9.90625 -17.921875 C 4.714844 -17.921875 1.539062 -13.660156 1.539062 -8.785156 C 1.539062 -3.589844 5.035156 0.320312 9.9375 0.320312 Z M 3.71875 -10.132812 C 3.816406 -10.835938 4.039062 -11.734375 4.359375 -12.441406 C 5.355469 -14.714844 7.375 -16.0625 9.9375 -16.0625 C 12.472656 -16.0625 14.652344 -14.683594 15.679688 -12.3125 C 16 -11.574219 16.128906 -10.933594 16.253906 -10.132812 Z M 3.71875 -10.132812 "/></g></g></g><g fill="#0a1a44" fill-opacity="1"><g transform="translate(316.118562, 330.170532)"><g><path d="M 9.9375 0.320312 C 14.171875 0.320312 16.863281 -2.277344 17.890625 -5.546875 L 15.679688 -5.546875 C 14.878906 -3.335938 12.855469 -1.539062 9.9375 -1.539062 C 7.246094 -1.539062 5.066406 -3.238281 4.105469 -5.996094 C 3.816406 -6.796875 3.65625 -7.535156 3.589844 -8.433594 L 18.277344 -8.433594 C 18.277344 -8.785156 18.277344 -9.167969 18.242188 -9.523438 C 17.828125 -14.429688 14.75 -17.921875 9.90625 -17.921875 C 4.714844 -17.921875 1.539062 -13.660156 1.539062 -8.785156 C 1.539062 -3.589844 5.035156 0.320312 9.9375 0.320312 Z M 3.71875 -10.132812 C 3.816406 -10.835938 4.039062 -11.734375 4.359375 -12.441406 C 5.355469 -14.714844 7.375 -16.0625 9.9375 -16.0625 C 12.472656 -16.0625 14.652344 -14.683594 15.679688 -12.3125 C 16 -11.574219 16.128906 -10.933594 16.253906 -10.132812 Z M 3.71875 -10.132812 "/></g></g></g><g fill="#0a1a44" fill-opacity="1"><g transform="translate(336.189688, 330.170532)"><g/></g></g><g fill="#0a1a44" fill-opacity="1"><g transform="translate(345.455785, 330.170532)"><g><path d="M 7.535156 0.320312 C 8.945312 0.320312 10.261719 -0.0625 11.382812 -0.738281 C 12.40625 -1.347656 13.242188 -2.210938 13.820312 -3.300781 L 13.820312 0 L 15.902344 0 L 15.902344 -10.515625 C 15.902344 -12.921875 15.324219 -14.8125 14.109375 -16.09375 C 12.984375 -17.28125 11.316406 -17.921875 9.074219 -17.921875 C 5.675781 -17.921875 2.726562 -15.96875 2.179688 -12.472656 L 4.265625 -12.472656 C 4.679688 -14.652344 6.667969 -16.0625 9.042969 -16.0625 C 10.675781 -16.0625 11.863281 -15.648438 12.632812 -14.78125 C 13.402344 -13.914062 13.753906 -12.695312 13.820312 -11.125 L 7.535156 -9.875 C 6.316406 -9.617188 4.679688 -9.234375 3.429688 -8.367188 C 2.339844 -7.597656 1.539062 -6.445312 1.539062 -4.679688 C 1.539062 -1.441406 4.070312 0.320312 7.535156 0.320312 Z M 7.375 -1.539062 C 5.257812 -1.539062 3.625 -2.660156 3.625 -4.679688 C 3.625 -5.644531 4.007812 -6.347656 4.617188 -6.863281 C 5.386719 -7.503906 6.507812 -7.824219 7.566406 -8.046875 L 13.820312 -9.363281 C 13.820312 -6.125 12.984375 -3.496094 10.386719 -2.246094 C 9.425781 -1.761719 8.433594 -1.539062 7.375 -1.539062 Z M 7.375 -1.539062 "/></g></g></g><g fill="#0a1a44" fill-opacity="1"><g transform="translate(363.731414, 330.170532)"><g><path d="M 4.359375 0 L 4.359375 -6.957031 C 4.359375 -10.996094 5.066406 -13.242188 6.316406 -14.621094 C 7.183594 -15.550781 8.335938 -16.0625 9.683594 -16.0625 C 11.125 -16.0625 12.214844 -15.519531 12.890625 -14.429688 C 13.402344 -13.59375 13.660156 -12.40625 13.660156 -10.902344 L 13.660156 0 L 15.742188 0 L 15.742188 -10.804688 C 15.742188 -11.992188 15.742188 -13.722656 14.878906 -15.230469 C 13.945312 -16.863281 12.3125 -17.921875 10.132812 -17.921875 C 7.664062 -17.921875 5.804688 -16.929688 4.359375 -14.652344 L 4.359375 -17.601562 L 2.277344 -17.601562 L 2.277344 0 Z M 4.359375 0 "/></g></g></g><g fill="#0a1a44" fill-opacity="1"><g transform="translate(381.910856, 330.170532)"><g><path d="M 9.296875 0.320312 C 11.894531 0.320312 14.042969 -1.027344 15.582031 -3.269531 L 15.582031 0 L 17.667969 0 L 17.667969 -24.464844 L 15.582031 -24.464844 L 15.582031 -14.332031 C 14.011719 -16.640625 11.863281 -17.921875 9.296875 -17.921875 C 4.714844 -17.921875 1.601562 -14.140625 1.601562 -8.785156 C 1.601562 -3.460938 4.714844 0.320312 9.296875 0.320312 Z M 9.492188 -1.539062 C 5.898438 -1.539062 3.6875 -4.679688 3.6875 -8.785156 C 3.6875 -12.921875 5.898438 -16.0625 9.492188 -16.0625 C 13.050781 -16.0625 15.648438 -12.953125 15.648438 -8.785156 C 15.648438 -4.648438 13.050781 -1.539062 9.492188 -1.539062 Z M 9.492188 -1.539062 "/></g></g></g><g fill="#0a1a44" fill-opacity="1"><g transform="translate(402.174357, 330.170532)"><g/></g></g><g fill="#0a1a44" fill-opacity="1"><g transform="translate(411.440465, 330.170532)"><g><path d="M 9.9375 0.320312 C 14.171875 0.320312 16.863281 -2.277344 17.890625 -5.546875 L 15.679688 -5.546875 C 14.878906 -3.335938 12.855469 -1.539062 9.9375 -1.539062 C 7.246094 -1.539062 5.066406 -3.238281 4.105469 -5.996094 C 3.816406 -6.796875 3.65625 -7.535156 3.589844 -8.433594 L 18.277344 -8.433594 C 18.277344 -8.785156 18.277344 -9.167969 18.242188 -9.523438 C 17.828125 -14.429688 14.75 -17.921875 9.90625 -17.921875 C 4.714844 -17.921875 1.539062 -13.660156 1.539062 -8.785156 C 1.539062 -3.589844 5.035156 0.320312 9.9375 0.320312 Z M 3.71875 -10.132812 C 3.816406 -10.835938 4.039062 -11.734375 4.359375 -12.441406 C 5.355469 -14.714844 7.375 -16.0625 9.9375 -16.0625 C 12.472656 -16.0625 14.652344 -14.683594 15.679688 -12.3125 C 16 -11.574219 16.128906 -10.933594 16.253906 -10.132812 Z M 3.71875 -10.132812 "/></g></g></g><g fill="#0a1a44" fill-opacity="1"><g transform="translate(431.511592, 330.170532)"><g><path d="M 7.535156 0.320312 C 8.945312 0.320312 10.261719 -0.0625 11.382812 -0.738281 C 12.40625 -1.347656 13.242188 -2.210938 13.820312 -3.300781 L 13.820312 0 L 15.902344 0 L 15.902344 -10.515625 C 15.902344 -12.921875 15.324219 -14.8125 14.109375 -16.09375 C 12.984375 -17.28125 11.316406 -17.921875 9.074219 -17.921875 C 5.675781 -17.921875 2.726562 -15.96875 2.179688 -12.472656 L 4.265625 -12.472656 C 4.679688 -14.652344 6.667969 -16.0625 9.042969 -16.0625 C 10.675781 -16.0625 11.863281 -15.648438 12.632812 -14.78125 C 13.402344 -13.914062 13.753906 -12.695312 13.820312 -11.125 L 7.535156 -9.875 C 6.316406 -9.617188 4.679688 -9.234375 3.429688 -8.367188 C 2.339844 -7.597656 1.539062 -6.445312 1.539062 -4.679688 C 1.539062 -1.441406 4.070312 0.320312 7.535156 0.320312 Z M 7.375 -1.539062 C 5.257812 -1.539062 3.625 -2.660156 3.625 -4.679688 C 3.625 -5.644531 4.007812 -6.347656 4.617188 -6.863281 C 5.386719 -7.503906 6.507812 -7.824219 7.566406 -8.046875 L 13.820312 -9.363281 C 13.820312 -6.125 12.984375 -3.496094 10.386719 -2.246094 C 9.425781 -1.761719 8.433594 -1.539062 7.375 -1.539062 Z M 7.375 -1.539062 "/></g></g></g><g fill="#0a1a44" fill-opacity="1"><g transform="translate(449.787232, 330.170532)"><g><path d="M 9.136719 0.320312 C 13.433594 0.320312 15.808594 -1.761719 15.808594 -4.90625 C 15.808594 -8.753906 12.3125 -9.457031 9.167969 -10.101562 C 6.574219 -10.613281 4.199219 -11.09375 4.199219 -13.242188 C 4.199219 -15.003906 5.769531 -16.0625 8.367188 -16.0625 C 10.996094 -16.0625 12.761719 -14.8125 13.144531 -12.472656 L 15.230469 -12.472656 C 14.683594 -15.773438 12.183594 -17.921875 8.367188 -17.921875 C 4.808594 -17.921875 2.117188 -16.191406 2.117188 -13.015625 C 2.117188 -9.585938 5.324219 -8.914062 8.367188 -8.304688 C 11.125 -7.757812 13.722656 -7.214844 13.722656 -4.714844 C 13.722656 -2.660156 11.992188 -1.539062 9.234375 -1.539062 C 5.738281 -1.539062 3.910156 -3.078125 3.558594 -5.546875 L 1.441406 -5.546875 C 1.890625 -1.890625 4.679688 0.320312 9.136719 0.320312 Z M 9.136719 0.320312 "/></g></g></g><g fill="#0a1a44" fill-opacity="1"><g transform="translate(467.485746, 330.170532)"><g><path d="M 5.035156 6.863281 C 6.125 6.863281 7.695312 6.605469 8.6875 3.945312 L 16.640625 -17.601562 L 14.332031 -17.601562 L 9.007812 -2.820312 L 2.949219 -17.601562 L 0.640625 -17.601562 L 7.953125 -0.160156 L 6.667969 3.238281 C 6.125 4.648438 5.546875 4.96875 4.070312 4.96875 L 2.148438 4.96875 L 2.148438 6.863281 Z M 5.035156 6.863281 "/></g></g></g><g fill="#0a1a44" fill-opacity="1"><g transform="translate(485.152194, 330.170532)"><g/></g></g><g fill="#0a1a44" fill-opacity="1"><g transform="translate(494.418291, 330.170532)"><g><path d="M 9.90625 0 L 9.90625 -1.859375 L 8.144531 -1.859375 C 5.996094 -1.859375 5.804688 -2.820312 5.804688 -4.839844 L 5.804688 -15.742188 L 9.9375 -15.742188 L 9.9375 -17.601562 L 5.804688 -17.601562 L 5.804688 -24.464844 L 3.71875 -24.464844 L 3.71875 -17.601562 L 0.867188 -17.601562 L 0.867188 -15.742188 L 3.71875 -15.742188 L 3.71875 -4.425781 C 3.71875 -0.898438 5 0 7.664062 0 Z M 9.90625 0 "/></g></g></g><g fill="#0a1a44" fill-opacity="1"><g transform="translate(505.800515, 330.170532)"><g><path d="M 9.972656 0.320312 C 14.941406 0.320312 18.46875 -3.625 18.46875 -8.882812 C 18.46875 -14.042969 14.878906 -17.921875 9.972656 -17.921875 C 5.066406 -17.921875 1.539062 -14.042969 1.539062 -8.882812 C 1.539062 -3.558594 5.066406 0.320312 9.972656 0.320312 Z M 9.972656 -1.539062 C 6.347656 -1.539062 3.625 -4.617188 3.625 -8.882812 C 3.625 -12.984375 6.316406 -16.0625 9.972656 -16.0625 C 13.660156 -16.0625 16.382812 -12.953125 16.382812 -8.882812 C 16.382812 -4.679688 13.625 -1.539062 9.972656 -1.539062 Z M 9.972656 -1.539062 "/></g></g></g><g fill="#0a1a44" fill-opacity="1"><g transform="translate(526.12815, 330.170532)"><g/></g></g><g fill="#0a1a44" fill-opacity="1"><g transform="translate(535.394247, 330.170532)"><g><path d="M 10.675781 -17.921875 C 8.078125 -17.921875 5.929688 -16.578125 4.390625 -14.332031 L 4.390625 -17.601562 L 2.308594 -17.601562 L 2.308594 6.863281 L 4.390625 6.863281 L 4.390625 -3.269531 C 5.964844 -0.960938 8.113281 0.320312 10.675781 0.320312 C 15.261719 0.320312 18.371094 -3.460938 18.371094 -8.816406 C 18.371094 -14.140625 15.261719 -17.921875 10.675781 -17.921875 Z M 10.484375 -16.0625 C 14.074219 -16.0625 16.289062 -12.921875 16.289062 -8.816406 C 16.289062 -4.679688 14.074219 -1.539062 10.484375 -1.539062 C 6.925781 -1.539062 4.328125 -4.648438 4.328125 -8.816406 C 4.328125 -12.953125 6.925781 -16.0625 10.484375 -16.0625 Z M 10.484375 -16.0625 "/></g></g></g><g fill="#0a1a44" fill-opacity="1"><g transform="translate(555.657748, 330.170532)"><g><path d="M 9.972656 0.320312 C 14.941406 0.320312 18.46875 -3.625 18.46875 -8.882812 C 18.46875 -14.042969 14.878906 -17.921875 9.972656 -17.921875 C 5.066406 -17.921875 1.539062 -14.042969 1.539062 -8.882812 C 1.539062 -3.558594 5.066406 0.320312 9.972656 0.320312 Z M 9.972656 -1.539062 C 6.347656 -1.539062 3.625 -4.617188 3.625 -8.882812 C 3.625 -12.984375 6.316406 -16.0625 9.972656 -16.0625 C 13.660156 -16.0625 16.382812 -12.953125 16.382812 -8.882812 C 16.382812 -4.679688 13.625 -1.539062 9.972656 -1.539062 Z M 9.972656 -1.539062 "/></g></g></g><g fill="#0a1a44" fill-opacity="1"><g transform="translate(575.985383, 330.170532)"><g><path d="M 9.136719 0.320312 C 13.433594 0.320312 15.808594 -1.761719 15.808594 -4.90625 C 15.808594 -8.753906 12.3125 -9.457031 9.167969 -10.101562 C 6.574219 -10.613281 4.199219 -11.09375 4.199219 -13.242188 C 4.199219 -15.003906 5.769531 -16.0625 8.367188 -16.0625 C 10.996094 -16.0625 12.761719 -14.8125 13.144531 -12.472656 L 15.230469 -12.472656 C 14.683594 -15.773438 12.183594 -17.921875 8.367188 -17.921875 C 4.808594 -17.921875 2.117188 -16.191406 2.117188 -13.015625 C 2.117188 -9.585938 5.324219 -8.914062 8.367188 -8.304688 C 11.125 -7.757812 13.722656 -7.214844 13.722656 -4.714844 C 13.722656 -2.660156 11.992188 -1.539062 9.234375 -1.539062 C 5.738281 -1.539062 3.910156 -3.078125 3.558594 -5.546875 L 1.441406 -5.546875 C 1.890625 -1.890625 4.679688 0.320312 9.136719 0.320312 Z M 9.136719 0.320312 "/></g></g></g><g fill="#0a1a44" fill-opacity="1"><g transform="translate(593.683897, 330.170532)"><g><path d="M 9.90625 0 L 9.90625 -1.859375 L 8.144531 -1.859375 C 5.996094 -1.859375 5.804688 -2.820312 5.804688 -4.839844 L 5.804688 -15.742188 L 9.9375 -15.742188 L 9.9375 -17.601562 L 5.804688 -17.601562 L 5.804688 -24.464844 L 3.71875 -24.464844 L 3.71875 -17.601562 L 0.867188 -17.601562 L 0.867188 -15.742188 L 3.71875 -15.742188 L 3.71875 -4.425781 C 3.71875 -0.898438 5 0 7.664062 0 Z M 9.90625 0 "/></g></g></g><g fill="#0a1a44" fill-opacity="1"><g transform="translate(605.066098, 330.170532)"><g/></g></g><g fill="#0a1a44" fill-opacity="1"><g transform="translate(614.332195, 330.170532)"><g><path d="M 7.535156 0.320312 C 8.945312 0.320312 10.261719 -0.0625 11.382812 -0.738281 C 12.40625 -1.347656 13.242188 -2.210938 13.820312 -3.300781 L 13.820312 0 L 15.902344 0 L 15.902344 -10.515625 C 15.902344 -12.921875 15.324219 -14.8125 14.109375 -16.09375 C 12.984375 -17.28125 11.316406 -17.921875 9.074219 -17.921875 C 5.675781 -17.921875 2.726562 -15.96875 2.179688 -12.472656 L 4.265625 -12.472656 C 4.679688 -14.652344 6.667969 -16.0625 9.042969 -16.0625 C 10.675781 -16.0625 11.863281 -15.648438 12.632812 -14.78125 C 13.402344 -13.914062 13.753906 -12.695312 13.820312 -11.125 L 7.535156 -9.875 C 6.316406 -9.617188 4.679688 -9.234375 3.429688 -8.367188 C 2.339844 -7.597656 1.539062 -6.445312 1.539062 -4.679688 C 1.539062 -1.441406 4.070312 0.320312 7.535156 0.320312 Z M 7.375 -1.539062 C 5.257812 -1.539062 3.625 -2.660156 3.625 -4.679688 C 3.625 -5.644531 4.007812 -6.347656 4.617188 -6.863281 C 5.386719 -7.503906 6.507812 -7.824219 7.566406 -8.046875 L 13.820312 -9.363281 C 13.820312 -6.125 12.984375 -3.496094 10.386719 -2.246094 C 9.425781 -1.761719 8.433594 -1.539062 7.375 -1.539062 Z M 7.375 -1.539062 "/></g></g></g><g fill="#0a1a44" fill-opacity="1"><g transform="translate(632.607813, 330.170532)"><g/></g></g><g fill="#0a1a44" fill-opacity="1"><g transform="translate(641.87391, 330.170532)"><g><path d="M 3.367188 -21.675781 C 4.230469 -21.675781 4.9375 -22.378906 4.9375 -23.246094 C 4.9375 -24.078125 4.230469 -24.785156 3.367188 -24.785156 C 2.5 -24.785156 1.796875 -24.078125 1.796875 -23.246094 C 1.796875 -22.378906 2.5 -21.675781 3.367188 -21.675781 Z M -0.03125 6.863281 C 2.886719 6.863281 4.390625 5.226562 4.390625 1.957031 L 4.390625 -17.601562 L 2.308594 -17.601562 L 2.308594 1.636719 C 2.308594 4.105469 1.28125 4.96875 -0.511719 4.96875 L -2.179688 4.96875 L -2.179688 6.863281 Z M -0.03125 6.863281 "/></g></g></g><g fill="#0a1a44" fill-opacity="1"><g transform="translate(648.863594, 330.170532)"><g><path d="M 9.972656 0.320312 C 14.941406 0.320312 18.46875 -3.625 18.46875 -8.882812 C 18.46875 -14.042969 14.878906 -17.921875 9.972656 -17.921875 C 5.066406 -17.921875 1.539062 -14.042969 1.539062 -8.882812 C 1.539062 -3.558594 5.066406 0.320312 9.972656 0.320312 Z M 9.972656 -1.539062 C 6.347656 -1.539062 3.625 -4.617188 3.625 -8.882812 C 3.625 -12.984375 6.316406 -16.0625 9.972656 -16.0625 C 13.660156 -16.0625 16.382812 -12.953125 16.382812 -8.882812 C 16.382812 -4.679688 13.625 -1.539062 9.972656 -1.539062 Z M 9.972656 -1.539062 "/></g></g></g><g fill="#0a1a44" fill-opacity="1"><g transform="translate(669.191228, 330.170532)"><g><path d="M 10.675781 0.320312 C 15.261719 0.320312 18.371094 -3.460938 18.371094 -8.785156 C 18.371094 -14.140625 15.261719 -17.921875 10.675781 -17.921875 C 8.113281 -17.921875 5.964844 -16.640625 4.390625 -14.332031 L 4.390625 -24.464844 L 2.308594 -24.464844 L 2.308594 0 L 4.390625 0 L 4.390625 -3.269531 C 5.929688 -1.027344 8.078125 0.320312 10.675781 0.320312 Z M 10.484375 -1.539062 C 6.925781 -1.539062 4.328125 -4.648438 4.328125 -8.785156 C 4.328125 -12.953125 6.925781 -16.0625 10.484375 -16.0625 C 14.074219 -16.0625 16.289062 -12.921875 16.289062 -8.785156 C 16.289062 -4.679688 14.074219 -1.539062 10.484375 -1.539062 Z M 10.484375 -1.539062 "/></g></g></g><g fill="#0a1a44" fill-opacity="1"><g transform="translate(689.45473, 330.170532)"><g><path d="M 4.554688 0.320312 C 5.386719 0.320312 6.09375 -0.417969 6.09375 -1.316406 C 6.09375 -2.148438 5.386719 -2.886719 4.554688 -2.886719 C 3.65625 -2.886719 2.886719 -2.179688 2.886719 -1.316406 C 2.886719 -0.417969 3.625 0.320312 4.554688 0.320312 Z M 4.554688 0.320312 "/></g></g></g><g fill="#0a1a44" fill-opacity="1"><g transform="translate(698.720827, 330.170532)"><g/></g></g><g fill="#0a1a44" fill-opacity="1"><g transform="translate(707.986924, 330.170532)"><g><path d="M 11.765625 0 L 11.765625 -9.363281 L 20.96875 -24.464844 L 18.402344 -24.464844 L 10.613281 -11.511719 L 2.820312 -24.464844 L 0.257812 -24.464844 L 9.457031 -9.363281 L 9.457031 0 Z M 11.765625 0 "/></g></g></g><g fill="#0a1a44" fill-opacity="1"><g transform="translate(729.500853, 330.170532)"><g><path d="M 9.972656 0.320312 C 14.941406 0.320312 18.46875 -3.625 18.46875 -8.882812 C 18.46875 -14.042969 14.878906 -17.921875 9.972656 -17.921875 C 5.066406 -17.921875 1.539062 -14.042969 1.539062 -8.882812 C 1.539062 -3.558594 5.066406 0.320312 9.972656 0.320312 Z M 9.972656 -1.539062 C 6.347656 -1.539062 3.625 -4.617188 3.625 -8.882812 C 3.625 -12.984375 6.316406 -16.0625 9.972656 -16.0625 C 13.660156 -16.0625 16.382812 -12.953125 16.382812 -8.882812 C 16.382812 -4.679688 13.625 -1.539062 9.972656 -1.539062 Z M 9.972656 -1.539062 "/></g></g></g><g fill="#0a1a44" fill-opacity="1"><g transform="translate(749.828487, 330.170532)"><g><path d="M 7.757812 0.320312 C 10.292969 0.320312 12.121094 -0.707031 13.53125 -2.949219 L 13.53125 0 L 15.613281 0 L 15.613281 -17.601562 L 13.53125 -17.601562 L 13.53125 -10.644531 C 13.53125 -6.863281 12.921875 -4.457031 11.574219 -2.980469 C 10.707031 -2.050781 9.523438 -1.539062 8.207031 -1.539062 C 6.765625 -1.539062 5.675781 -2.085938 5 -3.175781 C 4.488281 -4.007812 4.230469 -5.195312 4.230469 -6.699219 L 4.230469 -17.601562 L 2.148438 -17.601562 L 2.148438 -6.796875 C 2.148438 -4.90625 2.40625 -3.429688 3.015625 -2.371094 C 4.007812 -0.640625 5.707031 0.320312 7.757812 0.320312 Z M 7.757812 0.320312 "/></g></g></g><g fill="#0a1a44" fill-opacity="1"><g transform="translate(768.007929, 330.170532)"><g/></g></g><g fill="#0a1a44" fill-opacity="1"><g transform="translate(777.274026, 330.170532)"><g><path d="M 9.9375 0.320312 C 13.820312 0.320312 16.832031 -1.957031 17.570312 -5.546875 L 15.292969 -5.546875 C 14.78125 -3.175781 12.695312 -1.539062 9.9375 -1.539062 C 6.285156 -1.539062 3.625 -4.585938 3.625 -8.882812 C 3.625 -13.050781 6.285156 -16.0625 9.9375 -16.0625 C 12.503906 -16.0625 14.554688 -14.652344 15.199219 -12.472656 L 17.441406 -12.472656 C 16.640625 -15.773438 13.753906 -17.921875 9.9375 -17.921875 C 5.035156 -17.921875 1.539062 -14.042969 1.539062 -8.882812 C 1.539062 -3.558594 5.035156 0.320312 9.9375 0.320312 Z M 9.9375 0.320312 "/></g></g></g><g fill="#0a1a44" fill-opacity="1"><g transform="translate(796.511541, 330.170532)"><g><path d="M 7.535156 0.320312 C 8.945312 0.320312 10.261719 -0.0625 11.382812 -0.738281 C 12.40625 -1.347656 13.242188 -2.210938 13.820312 -3.300781 L 13.820312 0 L 15.902344 0 L 15.902344 -10.515625 C 15.902344 -12.921875 15.324219 -14.8125 14.109375 -16.09375 C 12.984375 -17.28125 11.316406 -17.921875 9.074219 -17.921875 C 5.675781 -17.921875 2.726562 -15.96875 2.179688 -12.472656 L 4.265625 -12.472656 C 4.679688 -14.652344 6.667969 -16.0625 9.042969 -16.0625 C 10.675781 -16.0625 11.863281 -15.648438 12.632812 -14.78125 C 13.402344 -13.914062 13.753906 -12.695312 13.820312 -11.125 L 7.535156 -9.875 C 6.316406 -9.617188 4.679688 -9.234375 3.429688 -8.367188 C 2.339844 -7.597656 1.539062 -6.445312 1.539062 -4.679688 C 1.539062 -1.441406 4.070312 0.320312 7.535156 0.320312 Z M 7.375 -1.539062 C 5.257812 -1.539062 3.625 -2.660156 3.625 -4.679688 C 3.625 -5.644531 4.007812 -6.347656 4.617188 -6.863281 C 5.386719 -7.503906 6.507812 -7.824219 7.566406 -8.046875 L 13.820312 -9.363281 C 13.820312 -6.125 12.984375 -3.496094 10.386719 -2.246094 C 9.425781 -1.761719 8.433594 -1.539062 7.375 -1.539062 Z M 7.375 -1.539062 "/></g></g></g><g fill="#0a1a44" fill-opacity="1"><g transform="translate(814.787159, 330.170532)"><g><path d="M 4.359375 0 L 4.359375 -6.957031 C 4.359375 -10.996094 5.066406 -13.242188 6.316406 -14.621094 C 7.183594 -15.550781 8.335938 -16.0625 9.683594 -16.0625 C 11.125 -16.0625 12.214844 -15.519531 12.890625 -14.429688 C 13.402344 -13.59375 13.660156 -12.40625 13.660156 -10.902344 L 13.660156 0 L 15.742188 0 L 15.742188 -10.804688 C 15.742188 -11.992188 15.742188 -13.722656 14.878906 -15.230469 C 13.945312 -16.863281 12.3125 -17.921875 10.132812 -17.921875 C 7.664062 -17.921875 5.804688 -16.929688 4.359375 -14.652344 L 4.359375 -17.601562 L 2.277344 -17.601562 L 2.277344 0 Z M 4.359375 0 "/></g></g></g><g fill="#0a1a44" fill-opacity="1"><g transform="translate(217.666837, 378.170527)"><g><path d="M 9.136719 0.320312 C 13.433594 0.320312 15.808594 -1.761719 15.808594 -4.90625 C 15.808594 -8.753906 12.3125 -9.457031 9.167969 -10.101562 C 6.574219 -10.613281 4.199219 -11.09375 4.199219 -13.242188 C 4.199219 -15.003906 5.769531 -16.0625 8.367188 -16.0625 C 10.996094 -16.0625 12.761719 -14.8125 13.144531 -12.472656 L 15.230469 -12.472656 C 14.683594 -15.773438 12.183594 -17.921875 8.367188 -17.921875 C 4.808594 -17.921875 2.117188 -16.191406 2.117188 -13.015625 C 2.117188 -9.585938 5.324219 -8.914062 8.367188 -8.304688 C 11.125 -7.757812 13.722656 -7.214844 13.722656 -4.714844 C 13.722656 -2.660156 11.992188 -1.539062 9.234375 -1.539062 C 5.738281 -1.539062 3.910156 -3.078125 3.558594 -5.546875 L 1.441406 -5.546875 C 1.890625 -1.890625 4.679688 0.320312 9.136719 0.320312 Z M 9.136719 0.320312 "/></g></g></g><g fill="#0a1a44" fill-opacity="1"><g transform="translate(235.365343, 378.170527)"><g><path d="M 3.367188 -21.675781 C 4.230469 -21.675781 4.9375 -22.378906 4.9375 -23.246094 C 4.9375 -24.078125 4.230469 -24.785156 3.367188 -24.785156 C 2.5 -24.785156 1.796875 -24.078125 1.796875 -23.246094 C 1.796875 -22.378906 2.5 -21.675781 3.367188 -21.675781 Z M 4.390625 0 L 4.390625 -17.601562 L 2.308594 -17.601562 L 2.308594 0 Z M 4.390625 0 "/></g></g></g><g fill="#0a1a44" fill-opacity="1"><g transform="translate(242.355007, 378.170527)"><g><path d="M 4.359375 0 L 4.359375 -8.046875 C 4.359375 -11.03125 4.808594 -12.824219 5.675781 -14.074219 C 6.539062 -15.324219 7.792969 -16.0625 9.425781 -16.0625 C 11.992188 -16.0625 13.304688 -13.980469 13.304688 -10.933594 L 13.304688 0 L 15.390625 0 L 15.390625 -8.046875 C 15.390625 -11.03125 15.871094 -12.824219 16.703125 -14.109375 C 17.601562 -15.484375 18.917969 -16.0625 20.457031 -16.0625 C 23.179688 -16.0625 24.269531 -13.882812 24.269531 -10.933594 L 24.269531 0 L 26.355469 0 L 26.355469 -11.445312 C 26.355469 -15.582031 24.496094 -17.921875 20.617188 -17.921875 C 18.210938 -17.921875 15.96875 -16.800781 14.84375 -14.234375 C 14.140625 -16.738281 12.085938 -17.921875 9.617188 -17.921875 C 7.054688 -17.921875 5.195312 -16.578125 4.359375 -14.972656 L 4.359375 -17.601562 L 2.277344 -17.601562 L 2.277344 0 Z M 4.359375 0 "/></g></g></g><g fill="#0a1a44" fill-opacity="1"><g transform="translate(271.147109, 378.170527)"><g><path d="M 10.675781 -17.921875 C 8.078125 -17.921875 5.929688 -16.578125 4.390625 -14.332031 L 4.390625 -17.601562 L 2.308594 -17.601562 L 2.308594 6.863281 L 4.390625 6.863281 L 4.390625 -3.269531 C 5.964844 -0.960938 8.113281 0.320312 10.675781 0.320312 C 15.261719 0.320312 18.371094 -3.460938 18.371094 -8.816406 C 18.371094 -14.140625 15.261719 -17.921875 10.675781 -17.921875 Z M 10.484375 -16.0625 C 14.074219 -16.0625 16.289062 -12.921875 16.289062 -8.816406 C 16.289062 -4.679688 14.074219 -1.539062 10.484375 -1.539062 C 6.925781 -1.539062 4.328125 -4.648438 4.328125 -8.816406 C 4.328125 -12.953125 6.925781 -16.0625 10.484375 -16.0625 Z M 10.484375 -16.0625 "/></g></g></g><g fill="#0a1a44" fill-opacity="1"><g transform="translate(291.41061, 378.170527)"><g><path d="M 7.46875 0 L 7.46875 -1.859375 L 6.316406 -1.859375 C 4.488281 -1.859375 4.296875 -2.726562 4.296875 -4.425781 L 4.296875 -24.464844 L 2.210938 -24.464844 L 2.210938 -4.105469 C 2.210938 -0.898438 3.496094 0 5.867188 0 Z M 7.46875 0 "/></g></g></g><g fill="#0a1a44" fill-opacity="1"><g transform="translate(300.131654, 378.170527)"><g><path d="M 5.035156 6.863281 C 6.125 6.863281 7.695312 6.605469 8.6875 3.945312 L 16.640625 -17.601562 L 14.332031 -17.601562 L 9.007812 -2.820312 L 2.949219 -17.601562 L 0.640625 -17.601562 L 7.953125 -0.160156 L 6.667969 3.238281 C 6.125 4.648438 5.546875 4.96875 4.070312 4.96875 L 2.148438 4.96875 L 2.148438 6.863281 Z M 5.035156 6.863281 "/></g></g></g><g fill="#0a1a44" fill-opacity="1"><g transform="translate(317.798108, 378.170527)"><g/></g></g><g fill="#0a1a44" fill-opacity="1"><g transform="translate(327.064205, 378.170527)"><g><path d="M 9.9375 0.320312 C 13.820312 0.320312 16.832031 -1.957031 17.570312 -5.546875 L 15.292969 -5.546875 C 14.78125 -3.175781 12.695312 -1.539062 9.9375 -1.539062 C 6.285156 -1.539062 3.625 -4.585938 3.625 -8.882812 C 3.625 -13.050781 6.285156 -16.0625 9.9375 -16.0625 C 12.503906 -16.0625 14.554688 -14.652344 15.199219 -12.472656 L 17.441406 -12.472656 C 16.640625 -15.773438 13.753906 -17.921875 9.9375 -17.921875 C 5.035156 -17.921875 1.539062 -14.042969 1.539062 -8.882812 C 1.539062 -3.558594 5.035156 0.320312 9.9375 0.320312 Z M 9.9375 0.320312 "/></g></g></g><g fill="#0a1a44" fill-opacity="1"><g transform="translate(346.301709, 378.170527)"><g><path d="M 4.390625 0 L 4.390625 -6.957031 C 4.390625 -10.996094 5.097656 -13.242188 6.347656 -14.621094 C 7.214844 -15.550781 8.367188 -16.0625 9.714844 -16.0625 C 11.15625 -16.0625 12.246094 -15.519531 12.921875 -14.429688 C 13.433594 -13.59375 13.691406 -12.40625 13.691406 -10.902344 L 13.691406 0 L 15.773438 0 L 15.773438 -10.804688 C 15.773438 -11.992188 15.773438 -13.722656 14.910156 -15.230469 C 13.980469 -16.863281 12.34375 -17.921875 10.164062 -17.921875 C 7.695312 -17.921875 5.835938 -16.929688 4.390625 -14.652344 L 4.390625 -24.464844 L 2.308594 -24.464844 L 2.308594 0 Z M 4.390625 0 "/></g></g></g><g fill="#0a1a44" fill-opacity="1"><g transform="translate(364.513217, 378.170527)"><g><path d="M 9.972656 0.320312 C 14.941406 0.320312 18.46875 -3.625 18.46875 -8.882812 C 18.46875 -14.042969 14.878906 -17.921875 9.972656 -17.921875 C 5.066406 -17.921875 1.539062 -14.042969 1.539062 -8.882812 C 1.539062 -3.558594 5.066406 0.320312 9.972656 0.320312 Z M 9.972656 -1.539062 C 6.347656 -1.539062 3.625 -4.617188 3.625 -8.882812 C 3.625 -12.984375 6.316406 -16.0625 9.972656 -16.0625 C 13.660156 -16.0625 16.382812 -12.953125 16.382812 -8.882812 C 16.382812 -4.679688 13.625 -1.539062 9.972656 -1.539062 Z M 9.972656 -1.539062 "/></g></g></g><g fill="#0a1a44" fill-opacity="1"><g transform="translate(384.84084, 378.170527)"><g><path d="M 9.972656 0.320312 C 14.941406 0.320312 18.46875 -3.625 18.46875 -8.882812 C 18.46875 -14.042969 14.878906 -17.921875 9.972656 -17.921875 C 5.066406 -17.921875 1.539062 -14.042969 1.539062 -8.882812 C 1.539062 -3.558594 5.066406 0.320312 9.972656 0.320312 Z M 9.972656 -1.539062 C 6.347656 -1.539062 3.625 -4.617188 3.625 -8.882812 C 3.625 -12.984375 6.316406 -16.0625 9.972656 -16.0625 C 13.660156 -16.0625 16.382812 -12.953125 16.382812 -8.882812 C 16.382812 -4.679688 13.625 -1.539062 9.972656 -1.539062 Z M 9.972656 -1.539062 "/></g></g></g><g fill="#0a1a44" fill-opacity="1"><g transform="translate(405.168462, 378.170527)"><g><path d="M 9.136719 0.320312 C 13.433594 0.320312 15.808594 -1.761719 15.808594 -4.90625 C 15.808594 -8.753906 12.3125 -9.457031 9.167969 -10.101562 C 6.574219 -10.613281 4.199219 -11.09375 4.199219 -13.242188 C 4.199219 -15.003906 5.769531 -16.0625 8.367188 -16.0625 C 10.996094 -16.0625 12.761719 -14.8125 13.144531 -12.472656 L 15.230469 -12.472656 C 14.683594 -15.773438 12.183594 -17.921875 8.367188 -17.921875 C 4.808594 -17.921875 2.117188 -16.191406 2.117188 -13.015625 C 2.117188 -9.585938 5.324219 -8.914062 8.367188 -8.304688 C 11.125 -7.757812 13.722656 -7.214844 13.722656 -4.714844 C 13.722656 -2.660156 11.992188 -1.539062 9.234375 -1.539062 C 5.738281 -1.539062 3.910156 -3.078125 3.558594 -5.546875 L 1.441406 -5.546875 C 1.890625 -1.890625 4.679688 0.320312 9.136719 0.320312 Z M 9.136719 0.320312 "/></g></g></g><g fill="#0a1a44" fill-opacity="1"><g transform="translate(422.866977, 378.170527)"><g><path d="M 9.9375 0.320312 C 14.171875 0.320312 16.863281 -2.277344 17.890625 -5.546875 L 15.679688 -5.546875 C 14.878906 -3.335938 12.855469 -1.539062 9.9375 -1.539062 C 7.246094 -1.539062 5.066406 -3.238281 4.105469 -5.996094 C 3.816406 -6.796875 3.65625 -7.535156 3.589844 -8.433594 L 18.277344 -8.433594 C 18.277344 -8.785156 18.277344 -9.167969 18.242188 -9.523438 C 17.828125 -14.429688 14.75 -17.921875 9.90625 -17.921875 C 4.714844 -17.921875 1.539062 -13.660156 1.539062 -8.785156 C 1.539062 -3.589844 5.035156 0.320312 9.9375 0.320312 Z M 3.71875 -10.132812 C 3.816406 -10.835938 4.039062 -11.734375 4.359375 -12.441406 C 5.355469 -14.714844 7.375 -16.0625 9.9375 -16.0625 C 12.472656 -16.0625 14.652344 -14.683594 15.679688 -12.3125 C 16 -11.574219 16.128906 -10.933594 16.253906 -10.132812 Z M 3.71875 -10.132812 "/></g></g></g><g fill="#0a1a44" fill-opacity="1"><g transform="translate(442.938103, 378.170527)"><g/></g></g><g fill="#0a1a44" fill-opacity="1"><g transform="translate(452.2042, 378.170527)"><g><path d="M 5.035156 6.863281 C 6.125 6.863281 7.695312 6.605469 8.6875 3.945312 L 16.640625 -17.601562 L 14.332031 -17.601562 L 9.007812 -2.820312 L 2.949219 -17.601562 L 0.640625 -17.601562 L 7.953125 -0.160156 L 6.667969 3.238281 C 6.125 4.648438 5.546875 4.96875 4.070312 4.96875 L 2.148438 4.96875 L 2.148438 6.863281 Z M 5.035156 6.863281 "/></g></g></g><g fill="#0a1a44" fill-opacity="1"><g transform="translate(469.870648, 378.170527)"><g><path d="M 9.972656 0.320312 C 14.941406 0.320312 18.46875 -3.625 18.46875 -8.882812 C 18.46875 -14.042969 14.878906 -17.921875 9.972656 -17.921875 C 5.066406 -17.921875 1.539062 -14.042969 1.539062 -8.882812 C 1.539062 -3.558594 5.066406 0.320312 9.972656 0.320312 Z M 9.972656 -1.539062 C 6.347656 -1.539062 3.625 -4.617188 3.625 -8.882812 C 3.625 -12.984375 6.316406 -16.0625 9.972656 -16.0625 C 13.660156 -16.0625 16.382812 -12.953125 16.382812 -8.882812 C 16.382812 -4.679688 13.625 -1.539062 9.972656 -1.539062 Z M 9.972656 -1.539062 "/></g></g></g><g fill="#0a1a44" fill-opacity="1"><g transform="translate(490.198283, 378.170527)"><g><path d="M 7.757812 0.320312 C 10.292969 0.320312 12.121094 -0.707031 13.53125 -2.949219 L 13.53125 0 L 15.613281 0 L 15.613281 -17.601562 L 13.53125 -17.601562 L 13.53125 -10.644531 C 13.53125 -6.863281 12.921875 -4.457031 11.574219 -2.980469 C 10.707031 -2.050781 9.523438 -1.539062 8.207031 -1.539062 C 6.765625 -1.539062 5.675781 -2.085938 5 -3.175781 C 4.488281 -4.007812 4.230469 -5.195312 4.230469 -6.699219 L 4.230469 -17.601562 L 2.148438 -17.601562 L 2.148438 -6.796875 C 2.148438 -4.90625 2.40625 -3.429688 3.015625 -2.371094 C 4.007812 -0.640625 5.707031 0.320312 7.757812 0.320312 Z M 7.757812 0.320312 "/></g></g></g><g fill="#0a1a44" fill-opacity="1"><g transform="translate(508.377724, 378.170527)"><g><path d="M 9.777344 -17.921875 C 7.308594 -17.921875 5.515625 -16.929688 4.359375 -14.972656 L 4.359375 -17.601562 L 2.277344 -17.601562 L 2.277344 0 L 4.359375 0 L 4.359375 -8.59375 C 4.359375 -11.222656 4.777344 -13.050781 5.804688 -14.332031 C 6.636719 -15.390625 7.886719 -15.871094 9.554688 -15.871094 L 10.355469 -15.871094 L 10.355469 -17.921875 Z M 9.777344 -17.921875 "/></g></g></g><g fill="#0a1a44" fill-opacity="1"><g transform="translate(519.727882, 378.170527)"><g/></g></g><g fill="#0a1a44" fill-opacity="1"><g transform="translate(528.993979, 378.170527)"><g><path d="M 3.367188 -21.675781 C 4.230469 -21.675781 4.9375 -22.378906 4.9375 -23.246094 C 4.9375 -24.078125 4.230469 -24.785156 3.367188 -24.785156 C 2.5 -24.785156 1.796875 -24.078125 1.796875 -23.246094 C 1.796875 -22.378906 2.5 -21.675781 3.367188 -21.675781 Z M 4.390625 0 L 4.390625 -17.601562 L 2.308594 -17.601562 L 2.308594 0 Z M 4.390625 0 "/></g></g></g><g fill="#0a1a44" fill-opacity="1"><g transform="translate(535.98364, 378.170527)"><g><path d="M 9.296875 0.320312 C 11.894531 0.320312 14.042969 -1.027344 15.582031 -3.269531 L 15.582031 0 L 17.667969 0 L 17.667969 -24.464844 L 15.582031 -24.464844 L 15.582031 -14.332031 C 14.011719 -16.640625 11.863281 -17.921875 9.296875 -17.921875 C 4.714844 -17.921875 1.601562 -14.140625 1.601562 -8.785156 C 1.601562 -3.460938 4.714844 0.320312 9.296875 0.320312 Z M 9.492188 -1.539062 C 5.898438 -1.539062 3.6875 -4.679688 3.6875 -8.785156 C 3.6875 -12.921875 5.898438 -16.0625 9.492188 -16.0625 C 13.050781 -16.0625 15.648438 -12.953125 15.648438 -8.785156 C 15.648438 -4.648438 13.050781 -1.539062 9.492188 -1.539062 Z M 9.492188 -1.539062 "/></g></g></g><g fill="#0a1a44" fill-opacity="1"><g transform="translate(556.247141, 378.170527)"><g><path d="M 9.9375 0.320312 C 14.171875 0.320312 16.863281 -2.277344 17.890625 -5.546875 L 15.679688 -5.546875 C 14.878906 -3.335938 12.855469 -1.539062 9.9375 -1.539062 C 7.246094 -1.539062 5.066406 -3.238281 4.105469 -5.996094 C 3.816406 -6.796875 3.65625 -7.535156 3.589844 -8.433594 L 18.277344 -8.433594 C 18.277344 -8.785156 18.277344 -9.167969 18.242188 -9.523438 C 17.828125 -14.429688 14.75 -17.921875 9.90625 -17.921875 C 4.714844 -17.921875 1.539062 -13.660156 1.539062 -8.785156 C 1.539062 -3.589844 5.035156 0.320312 9.9375 0.320312 Z M 3.71875 -10.132812 C 3.816406 -10.835938 4.039062 -11.734375 4.359375 -12.441406 C 5.355469 -14.714844 7.375 -16.0625 9.9375 -16.0625 C 12.472656 -16.0625 14.652344 -14.683594 15.679688 -12.3125 C 16 -11.574219 16.128906 -10.933594 16.253906 -10.132812 Z M 3.71875 -10.132812 "/></g></g></g><g fill="#0a1a44" fill-opacity="1"><g transform="translate(576.318268, 378.170527)"><g><path d="M 4.359375 0 L 4.359375 -6.957031 C 4.359375 -10.996094 5.066406 -13.242188 6.316406 -14.621094 C 7.183594 -15.550781 8.335938 -16.0625 9.683594 -16.0625 C 11.125 -16.0625 12.214844 -15.519531 12.890625 -14.429688 C 13.402344 -13.59375 13.660156 -12.40625 13.660156 -10.902344 L 13.660156 0 L 15.742188 0 L 15.742188 -10.804688 C 15.742188 -11.992188 15.742188 -13.722656 14.878906 -15.230469 C 13.945312 -16.863281 12.3125 -17.921875 10.132812 -17.921875 C 7.664062 -17.921875 5.804688 -16.929688 4.359375 -14.652344 L 4.359375 -17.601562 L 2.277344 -17.601562 L 2.277344 0 Z M 4.359375 0 "/></g></g></g><g fill="#0a1a44" fill-opacity="1"><g transform="translate(594.497709, 378.170527)"><g><path d="M 9.90625 0 L 9.90625 -1.859375 L 8.144531 -1.859375 C 5.996094 -1.859375 5.804688 -2.820312 5.804688 -4.839844 L 5.804688 -15.742188 L 9.9375 -15.742188 L 9.9375 -17.601562 L 5.804688 -17.601562 L 5.804688 -24.464844 L 3.71875 -24.464844 L 3.71875 -17.601562 L 0.867188 -17.601562 L 0.867188 -15.742188 L 3.71875 -15.742188 L 3.71875 -4.425781 C 3.71875 -0.898438 5 0 7.664062 0 Z M 9.90625 0 "/></g></g></g><g fill="#0a1a44" fill-opacity="1"><g transform="translate(605.87991, 378.170527)"><g><path d="M 3.367188 -21.675781 C 4.230469 -21.675781 4.9375 -22.378906 4.9375 -23.246094 C 4.9375 -24.078125 4.230469 -24.785156 3.367188 -24.785156 C 2.5 -24.785156 1.796875 -24.078125 1.796875 -23.246094 C 1.796875 -22.378906 2.5 -21.675781 3.367188 -21.675781 Z M 4.390625 0 L 4.390625 -17.601562 L 2.308594 -17.601562 L 2.308594 0 Z M 4.390625 0 "/></g></g></g><g fill="#0a1a44" fill-opacity="1"><g transform="translate(612.869594, 378.170527)"><g><path d="M 9.90625 0 L 9.90625 -1.859375 L 8.144531 -1.859375 C 5.996094 -1.859375 5.804688 -2.820312 5.804688 -4.839844 L 5.804688 -15.742188 L 9.9375 -15.742188 L 9.9375 -17.601562 L 5.804688 -17.601562 L 5.804688 -24.464844 L 3.71875 -24.464844 L 3.71875 -17.601562 L 0.867188 -17.601562 L 0.867188 -15.742188 L 3.71875 -15.742188 L 3.71875 -4.425781 C 3.71875 -0.898438 5 0 7.664062 0 Z M 9.90625 0 "/></g></g></g><g fill="#0a1a44" fill-opacity="1"><g transform="translate(624.251795, 378.170527)"><g><path d="M 5.035156 6.863281 C 6.125 6.863281 7.695312 6.605469 8.6875 3.945312 L 16.640625 -17.601562 L 14.332031 -17.601562 L 9.007812 -2.820312 L 2.949219 -17.601562 L 0.640625 -17.601562 L 7.953125 -0.160156 L 6.667969 3.238281 C 6.125 4.648438 5.546875 4.96875 4.070312 4.96875 L 2.148438 4.96875 L 2.148438 6.863281 Z M 5.035156 6.863281 "/></g></g></g><g fill="#0a1a44" fill-opacity="1"><g transform="translate(641.918266, 378.170527)"><g><path d="M 2.980469 5.484375 C 6.058594 5 7.148438 2.660156 7.148438 0.511719 C 7.148438 -1.570312 6.1875 -2.886719 4.648438 -2.886719 C 3.589844 -2.886719 2.886719 -2.210938 2.886719 -1.25 C 2.886719 -0.289062 3.558594 0.320312 4.585938 0.320312 C 5.097656 0.320312 5.484375 0.128906 5.835938 -0.257812 C 5.898438 0.222656 5.898438 0.449219 5.898438 0.671875 C 5.898438 2.597656 4.9375 3.976562 2.980469 4.328125 Z M 2.980469 5.484375 "/></g></g></g><g fill="#0a1a44" fill-opacity="1"><g transform="translate(652.242438, 378.170527)"><g/></g></g><g fill="#0a1a44" fill-opacity="1"><g transform="translate(661.508535, 378.170527)"><g><path d="M 10.675781 -17.921875 C 8.078125 -17.921875 5.929688 -16.578125 4.390625 -14.332031 L 4.390625 -17.601562 L 2.308594 -17.601562 L 2.308594 6.863281 L 4.390625 6.863281 L 4.390625 -3.269531 C 5.964844 -0.960938 8.113281 0.320312 10.675781 0.320312 C 15.261719 0.320312 18.371094 -3.460938 18.371094 -8.816406 C 18.371094 -14.140625 15.261719 -17.921875 10.675781 -17.921875 Z M 10.484375 -16.0625 C 14.074219 -16.0625 16.289062 -12.921875 16.289062 -8.816406 C 16.289062 -4.679688 14.074219 -1.539062 10.484375 -1.539062 C 6.925781 -1.539062 4.328125 -4.648438 4.328125 -8.816406 C 4.328125 -12.953125 6.925781 -16.0625 10.484375 -16.0625 Z M 10.484375 -16.0625 "/></g></g></g><g fill="#0a1a44" fill-opacity="1"><g transform="translate(681.772037, 378.170527)"><g><path d="M 9.777344 -17.921875 C 7.308594 -17.921875 5.515625 -16.929688 4.359375 -14.972656 L 4.359375 -17.601562 L 2.277344 -17.601562 L 2.277344 0 L 4.359375 0 L 4.359375 -8.59375 C 4.359375 -11.222656 4.777344 -13.050781 5.804688 -14.332031 C 6.636719 -15.390625 7.886719 -15.871094 9.554688 -15.871094 L 10.355469 -15.871094 L 10.355469 -17.921875 Z M 9.777344 -17.921875 "/></g></g></g><g fill="#0a1a44" fill-opacity="1"><g transform="translate(693.122194, 378.170527)"><g><path d="M 9.972656 0.320312 C 14.941406 0.320312 18.46875 -3.625 18.46875 -8.882812 C 18.46875 -14.042969 14.878906 -17.921875 9.972656 -17.921875 C 5.066406 -17.921875 1.539062 -14.042969 1.539062 -8.882812 C 1.539062 -3.558594 5.066406 0.320312 9.972656 0.320312 Z M 9.972656 -1.539062 C 6.347656 -1.539062 3.625 -4.617188 3.625 -8.882812 C 3.625 -12.984375 6.316406 -16.0625 9.972656 -16.0625 C 13.660156 -16.0625 16.382812 -12.953125 16.382812 -8.882812 C 16.382812 -4.679688 13.625 -1.539062 9.972656 -1.539062 Z M 9.972656 -1.539062 "/></g></g></g><g fill="#0a1a44" fill-opacity="1"><g transform="translate(713.449829, 378.170527)"><g><path d="M 5.867188 0 L 5.867188 -15.742188 L 10.324219 -15.742188 L 10.324219 -17.601562 L 5.867188 -17.601562 L 5.867188 -19.816406 C 5.867188 -22.125 7.023438 -22.605469 8.65625 -22.605469 L 10.324219 -22.605469 L 10.324219 -24.464844 L 8.207031 -24.464844 C 5.257812 -24.464844 3.785156 -22.796875 3.785156 -19.589844 L 3.785156 -17.601562 L 0.832031 -17.601562 L 0.832031 -15.742188 L 3.785156 -15.742188 L 3.785156 0 Z M 5.867188 0 "/></g></g></g><g fill="#0a1a44" fill-opacity="1"><g transform="translate(724.735853, 378.170527)"><g><path d="M 3.367188 -21.675781 C 4.230469 -21.675781 4.9375 -22.378906 4.9375 -23.246094 C 4.9375 -24.078125 4.230469 -24.785156 3.367188 -24.785156 C 2.5 -24.785156 1.796875 -24.078125 1.796875 -23.246094 C 1.796875 -22.378906 2.5 -21.675781 3.367188 -21.675781 Z M 4.390625 0 L 4.390625 -17.601562 L 2.308594 -17.601562 L 2.308594 0 Z M 4.390625 0 "/></g></g></g><g fill="#0a1a44" fill-opacity="1"><g transform="translate(731.725538, 378.170527)"><g><path d="M 7.46875 0 L 7.46875 -1.859375 L 6.316406 -1.859375 C 4.488281 -1.859375 4.296875 -2.726562 4.296875 -4.425781 L 4.296875 -24.464844 L 2.210938 -24.464844 L 2.210938 -4.105469 C 2.210938 -0.898438 3.496094 0 5.867188 0 Z M 7.46875 0 "/></g></g></g><g fill="#0a1a44" fill-opacity="1"><g transform="translate(740.446575, 378.170527)"><g><path d="M 9.9375 0.320312 C 14.171875 0.320312 16.863281 -2.277344 17.890625 -5.546875 L 15.679688 -5.546875 C 14.878906 -3.335938 12.855469 -1.539062 9.9375 -1.539062 C 7.246094 -1.539062 5.066406 -3.238281 4.105469 -5.996094 C 3.816406 -6.796875 3.65625 -7.535156 3.589844 -8.433594 L 18.277344 -8.433594 C 18.277344 -8.785156 18.277344 -9.167969 18.242188 -9.523438 C 17.828125 -14.429688 14.75 -17.921875 9.90625 -17.921875 C 4.714844 -17.921875 1.539062 -13.660156 1.539062 -8.785156 C 1.539062 -3.589844 5.035156 0.320312 9.9375 0.320312 Z M 3.71875 -10.132812 C 3.816406 -10.835938 4.039062 -11.734375 4.359375 -12.441406 C 5.355469 -14.714844 7.375 -16.0625 9.9375 -16.0625 C 12.472656 -16.0625 14.652344 -14.683594 15.679688 -12.3125 C 16 -11.574219 16.128906 -10.933594 16.253906 -10.132812 Z M 3.71875 -10.132812 "/></g></g></g><g fill="#0a1a44" fill-opacity="1"><g transform="translate(760.517725, 378.170527)"><g/></g></g><g fill="#0a1a44" fill-opacity="1"><g transform="translate(769.783822, 378.170527)"><g><path d="M 7.535156 0.320312 C 8.945312 0.320312 10.261719 -0.0625 11.382812 -0.738281 C 12.40625 -1.347656 13.242188 -2.210938 13.820312 -3.300781 L 13.820312 0 L 15.902344 0 L 15.902344 -10.515625 C 15.902344 -12.921875 15.324219 -14.8125 14.109375 -16.09375 C 12.984375 -17.28125 11.316406 -17.921875 9.074219 -17.921875 C 5.675781 -17.921875 2.726562 -15.96875 2.179688 -12.472656 L 4.265625 -12.472656 C 4.679688 -14.652344 6.667969 -16.0625 9.042969 -16.0625 C 10.675781 -16.0625 11.863281 -15.648438 12.632812 -14.78125 C 13.402344 -13.914062 13.753906 -12.695312 13.820312 -11.125 L 7.535156 -9.875 C 6.316406 -9.617188 4.679688 -9.234375 3.429688 -8.367188 C 2.339844 -7.597656 1.539062 -6.445312 1.539062 -4.679688 C 1.539062 -1.441406 4.070312 0.320312 7.535156 0.320312 Z M 7.375 -1.539062 C 5.257812 -1.539062 3.625 -2.660156 3.625 -4.679688 C 3.625 -5.644531 4.007812 -6.347656 4.617188 -6.863281 C 5.386719 -7.503906 6.507812 -7.824219 7.566406 -8.046875 L 13.820312 -9.363281 C 13.820312 -6.125 12.984375 -3.496094 10.386719 -2.246094 C 9.425781 -1.761719 8.433594 -1.539062 7.375 -1.539062 Z M 7.375 -1.539062 "/></g></g></g><g fill="#0a1a44" fill-opacity="1"><g transform="translate(788.05944, 378.170527)"><g><path d="M 4.359375 0 L 4.359375 -6.957031 C 4.359375 -10.996094 5.066406 -13.242188 6.316406 -14.621094 C 7.183594 -15.550781 8.335938 -16.0625 9.683594 -16.0625 C 11.125 -16.0625 12.214844 -15.519531 12.890625 -14.429688 C 13.402344 -13.59375 13.660156 -12.40625 13.660156 -10.902344 L 13.660156 0 L 15.742188 0 L 15.742188 -10.804688 C 15.742188 -11.992188 15.742188 -13.722656 14.878906 -15.230469 C 13.945312 -16.863281 12.3125 -17.921875 10.132812 -17.921875 C 7.664062 -17.921875 5.804688 -16.929688 4.359375 -14.652344 L 4.359375 -17.601562 L 2.277344 -17.601562 L 2.277344 0 Z M 4.359375 0 "/></g></g></g><g fill="#0a1a44" fill-opacity="1"><g transform="translate(806.238881, 378.170527)"><g><path d="M 9.296875 0.320312 C 11.894531 0.320312 14.042969 -1.027344 15.582031 -3.269531 L 15.582031 0 L 17.667969 0 L 17.667969 -24.464844 L 15.582031 -24.464844 L 15.582031 -14.332031 C 14.011719 -16.640625 11.863281 -17.921875 9.296875 -17.921875 C 4.714844 -17.921875 1.601562 -14.140625 1.601562 -8.785156 C 1.601562 -3.460938 4.714844 0.320312 9.296875 0.320312 Z M 9.492188 -1.539062 C 5.898438 -1.539062 3.6875 -4.679688 3.6875 -8.785156 C 3.6875 -12.921875 5.898438 -16.0625 9.492188 -16.0625 C 13.050781 -16.0625 15.648438 -12.953125 15.648438 -8.785156 C 15.648438 -4.648438 13.050781 -1.539062 9.492188 -1.539062 Z M 9.492188 -1.539062 "/></g></g></g><g fill="#0a1a44" fill-opacity="1"><g transform="translate(237.86996, 426.170521)"><g><path d="M 10.675781 0.320312 C 15.261719 0.320312 18.371094 -3.460938 18.371094 -8.785156 C 18.371094 -14.140625 15.261719 -17.921875 10.675781 -17.921875 C 8.113281 -17.921875 5.964844 -16.640625 4.390625 -14.332031 L 4.390625 -24.464844 L 2.308594 -24.464844 L 2.308594 0 L 4.390625 0 L 4.390625 -3.269531 C 5.929688 -1.027344 8.078125 0.320312 10.675781 0.320312 Z M 10.484375 -1.539062 C 6.925781 -1.539062 4.328125 -4.648438 4.328125 -8.785156 C 4.328125 -12.953125 6.925781 -16.0625 10.484375 -16.0625 C 14.074219 -16.0625 16.289062 -12.921875 16.289062 -8.785156 C 16.289062 -4.679688 14.074219 -1.539062 10.484375 -1.539062 Z M 10.484375 -1.539062 "/></g></g></g><g fill="#0a1a44" fill-opacity="1"><g transform="translate(258.133464, 426.170521)"><g><path d="M 7.757812 0.320312 C 10.292969 0.320312 12.121094 -0.707031 13.53125 -2.949219 L 13.53125 0 L 15.613281 0 L 15.613281 -17.601562 L 13.53125 -17.601562 L 13.53125 -10.644531 C 13.53125 -6.863281 12.921875 -4.457031 11.574219 -2.980469 C 10.707031 -2.050781 9.523438 -1.539062 8.207031 -1.539062 C 6.765625 -1.539062 5.675781 -2.085938 5 -3.175781 C 4.488281 -4.007812 4.230469 -5.195312 4.230469 -6.699219 L 4.230469 -17.601562 L 2.148438 -17.601562 L 2.148438 -6.796875 C 2.148438 -4.90625 2.40625 -3.429688 3.015625 -2.371094 C 4.007812 -0.640625 5.707031 0.320312 7.757812 0.320312 Z M 7.757812 0.320312 "/></g></g></g><g fill="#0a1a44" fill-opacity="1"><g transform="translate(276.312908, 426.170521)"><g><path d="M 9.296875 0.320312 C 11.894531 0.320312 14.042969 -1.027344 15.582031 -3.269531 L 15.582031 0 L 17.667969 0 L 17.667969 -24.464844 L 15.582031 -24.464844 L 15.582031 -14.332031 C 14.011719 -16.640625 11.863281 -17.921875 9.296875 -17.921875 C 4.714844 -17.921875 1.601562 -14.140625 1.601562 -8.785156 C 1.601562 -3.460938 4.714844 0.320312 9.296875 0.320312 Z M 9.492188 -1.539062 C 5.898438 -1.539062 3.6875 -4.679688 3.6875 -8.785156 C 3.6875 -12.921875 5.898438 -16.0625 9.492188 -16.0625 C 13.050781 -16.0625 15.648438 -12.953125 15.648438 -8.785156 C 15.648438 -4.648438 13.050781 -1.539062 9.492188 -1.539062 Z M 9.492188 -1.539062 "/></g></g></g><g fill="#0a1a44" fill-opacity="1"><g transform="translate(296.576416, 426.170521)"><g><path d="M 9.875 7.183594 C 14.683594 7.183594 17.667969 5.160156 17.667969 -0.222656 L 17.667969 -17.601562 L 15.582031 -17.601562 L 15.582031 -14.332031 C 14.042969 -16.578125 11.894531 -17.921875 9.296875 -17.921875 C 4.714844 -17.921875 1.601562 -14.140625 1.601562 -8.847656 C 1.601562 -3.496094 4.714844 0.320312 9.296875 0.320312 C 11.863281 0.320312 14.011719 -0.960938 15.582031 -3.269531 L 15.582031 0.128906 C 15.582031 3.460938 13.914062 5.324219 9.84375 5.324219 C 6.507812 5.324219 4.90625 4.136719 4.199219 1.796875 L 2.117188 1.796875 C 3.140625 5.675781 5.996094 7.183594 9.875 7.183594 Z M 9.492188 -1.539062 C 5.898438 -1.539062 3.6875 -4.679688 3.6875 -8.785156 C 3.6875 -12.921875 5.835938 -16.0625 9.492188 -16.0625 C 13.050781 -16.0625 15.648438 -12.953125 15.648438 -8.785156 C 15.648438 -4.648438 13.050781 -1.539062 9.492188 -1.539062 Z M 9.492188 -1.539062 "/></g></g></g><g fill="#0a1a44" fill-opacity="1"><g transform="translate(316.807851, 426.170521)"><g><path d="M 9.9375 0.320312 C 14.171875 0.320312 16.863281 -2.277344 17.890625 -5.546875 L 15.679688 -5.546875 C 14.878906 -3.335938 12.855469 -1.539062 9.9375 -1.539062 C 7.246094 -1.539062 5.066406 -3.238281 4.105469 -5.996094 C 3.816406 -6.796875 3.65625 -7.535156 3.589844 -8.433594 L 18.277344 -8.433594 C 18.277344 -8.785156 18.277344 -9.167969 18.242188 -9.523438 C 17.828125 -14.429688 14.75 -17.921875 9.90625 -17.921875 C 4.714844 -17.921875 1.539062 -13.660156 1.539062 -8.785156 C 1.539062 -3.589844 5.035156 0.320312 9.9375 0.320312 Z M 3.71875 -10.132812 C 3.816406 -10.835938 4.039062 -11.734375 4.359375 -12.441406 C 5.355469 -14.714844 7.375 -16.0625 9.9375 -16.0625 C 12.472656 -16.0625 14.652344 -14.683594 15.679688 -12.3125 C 16 -11.574219 16.128906 -10.933594 16.253906 -10.132812 Z M 3.71875 -10.132812 "/></g></g></g><g fill="#0a1a44" fill-opacity="1"><g transform="translate(336.878977, 426.170521)"><g><path d="M 9.90625 0 L 9.90625 -1.859375 L 8.144531 -1.859375 C 5.996094 -1.859375 5.804688 -2.820312 5.804688 -4.839844 L 5.804688 -15.742188 L 9.9375 -15.742188 L 9.9375 -17.601562 L 5.804688 -17.601562 L 5.804688 -24.464844 L 3.71875 -24.464844 L 3.71875 -17.601562 L 0.867188 -17.601562 L 0.867188 -15.742188 L 3.71875 -15.742188 L 3.71875 -4.425781 C 3.71875 -0.898438 5 0 7.664062 0 Z M 9.90625 0 "/></g></g></g><g fill="#0a1a44" fill-opacity="1"><g transform="translate(348.26119, 426.170521)"><g/></g></g><g fill="#0a1a44" fill-opacity="1"><g transform="translate(357.527287, 426.170521)"><g><path d="M 7.535156 0.320312 C 8.945312 0.320312 10.261719 -0.0625 11.382812 -0.738281 C 12.40625 -1.347656 13.242188 -2.210938 13.820312 -3.300781 L 13.820312 0 L 15.902344 0 L 15.902344 -10.515625 C 15.902344 -12.921875 15.324219 -14.8125 14.109375 -16.09375 C 12.984375 -17.28125 11.316406 -17.921875 9.074219 -17.921875 C 5.675781 -17.921875 2.726562 -15.96875 2.179688 -12.472656 L 4.265625 -12.472656 C 4.679688 -14.652344 6.667969 -16.0625 9.042969 -16.0625 C 10.675781 -16.0625 11.863281 -15.648438 12.632812 -14.78125 C 13.402344 -13.914062 13.753906 -12.695312 13.820312 -11.125 L 7.535156 -9.875 C 6.316406 -9.617188 4.679688 -9.234375 3.429688 -8.367188 C 2.339844 -7.597656 1.539062 -6.445312 1.539062 -4.679688 C 1.539062 -1.441406 4.070312 0.320312 7.535156 0.320312 Z M 7.375 -1.539062 C 5.257812 -1.539062 3.625 -2.660156 3.625 -4.679688 C 3.625 -5.644531 4.007812 -6.347656 4.617188 -6.863281 C 5.386719 -7.503906 6.507812 -7.824219 7.566406 -8.046875 L 13.820312 -9.363281 C 13.820312 -6.125 12.984375 -3.496094 10.386719 -2.246094 C 9.425781 -1.761719 8.433594 -1.539062 7.375 -1.539062 Z M 7.375 -1.539062 "/></g></g></g><g fill="#0a1a44" fill-opacity="1"><g transform="translate(375.802915, 426.170521)"><g><path d="M 4.359375 0 L 4.359375 -6.957031 C 4.359375 -10.996094 5.066406 -13.242188 6.316406 -14.621094 C 7.183594 -15.550781 8.335938 -16.0625 9.683594 -16.0625 C 11.125 -16.0625 12.214844 -15.519531 12.890625 -14.429688 C 13.402344 -13.59375 13.660156 -12.40625 13.660156 -10.902344 L 13.660156 0 L 15.742188 0 L 15.742188 -10.804688 C 15.742188 -11.992188 15.742188 -13.722656 14.878906 -15.230469 C 13.945312 -16.863281 12.3125 -17.921875 10.132812 -17.921875 C 7.664062 -17.921875 5.804688 -16.929688 4.359375 -14.652344 L 4.359375 -17.601562 L 2.277344 -17.601562 L 2.277344 0 Z M 4.359375 0 "/></g></g></g><g fill="#0a1a44" fill-opacity="1"><g transform="translate(393.982357, 426.170521)"><g><path d="M 9.296875 0.320312 C 11.894531 0.320312 14.042969 -1.027344 15.582031 -3.269531 L 15.582031 0 L 17.667969 0 L 17.667969 -24.464844 L 15.582031 -24.464844 L 15.582031 -14.332031 C 14.011719 -16.640625 11.863281 -17.921875 9.296875 -17.921875 C 4.714844 -17.921875 1.601562 -14.140625 1.601562 -8.785156 C 1.601562 -3.460938 4.714844 0.320312 9.296875 0.320312 Z M 9.492188 -1.539062 C 5.898438 -1.539062 3.6875 -4.679688 3.6875 -8.785156 C 3.6875 -12.921875 5.898438 -16.0625 9.492188 -16.0625 C 13.050781 -16.0625 15.648438 -12.953125 15.648438 -8.785156 C 15.648438 -4.648438 13.050781 -1.539062 9.492188 -1.539062 Z M 9.492188 -1.539062 "/></g></g></g><g fill="#0a1a44" fill-opacity="1"><g transform="translate(414.245858, 426.170521)"><g/></g></g><g fill="#0a1a44" fill-opacity="1"><g transform="translate(423.511955, 426.170521)"><g><path d="M 9.777344 -17.921875 C 7.308594 -17.921875 5.515625 -16.929688 4.359375 -14.972656 L 4.359375 -17.601562 L 2.277344 -17.601562 L 2.277344 0 L 4.359375 0 L 4.359375 -8.59375 C 4.359375 -11.222656 4.777344 -13.050781 5.804688 -14.332031 C 6.636719 -15.390625 7.886719 -15.871094 9.554688 -15.871094 L 10.355469 -15.871094 L 10.355469 -17.921875 Z M 9.777344 -17.921875 "/></g></g></g><g fill="#0a1a44" fill-opacity="1"><g transform="translate(434.862101, 426.170521)"><g><path d="M 9.9375 0.320312 C 14.171875 0.320312 16.863281 -2.277344 17.890625 -5.546875 L 15.679688 -5.546875 C 14.878906 -3.335938 12.855469 -1.539062 9.9375 -1.539062 C 7.246094 -1.539062 5.066406 -3.238281 4.105469 -5.996094 C 3.816406 -6.796875 3.65625 -7.535156 3.589844 -8.433594 L 18.277344 -8.433594 C 18.277344 -8.785156 18.277344 -9.167969 18.242188 -9.523438 C 17.828125 -14.429688 14.75 -17.921875 9.90625 -17.921875 C 4.714844 -17.921875 1.539062 -13.660156 1.539062 -8.785156 C 1.539062 -3.589844 5.035156 0.320312 9.9375 0.320312 Z M 3.71875 -10.132812 C 3.816406 -10.835938 4.039062 -11.734375 4.359375 -12.441406 C 5.355469 -14.714844 7.375 -16.0625 9.9375 -16.0625 C 12.472656 -16.0625 14.652344 -14.683594 15.679688 -12.3125 C 16 -11.574219 16.128906 -10.933594 16.253906 -10.132812 Z M 3.71875 -10.132812 "/></g></g></g><g fill="#0a1a44" fill-opacity="1"><g transform="translate(454.933228, 426.170521)"><g><path d="M 9.9375 0.320312 C 13.820312 0.320312 16.832031 -1.957031 17.570312 -5.546875 L 15.292969 -5.546875 C 14.78125 -3.175781 12.695312 -1.539062 9.9375 -1.539062 C 6.285156 -1.539062 3.625 -4.585938 3.625 -8.882812 C 3.625 -13.050781 6.285156 -16.0625 9.9375 -16.0625 C 12.503906 -16.0625 14.554688 -14.652344 15.199219 -12.472656 L 17.441406 -12.472656 C 16.640625 -15.773438 13.753906 -17.921875 9.9375 -17.921875 C 5.035156 -17.921875 1.539062 -14.042969 1.539062 -8.882812 C 1.539062 -3.558594 5.035156 0.320312 9.9375 0.320312 Z M 9.9375 0.320312 "/></g></g></g><g fill="#0a1a44" fill-opacity="1"><g transform="translate(474.170743, 426.170521)"><g><path d="M 9.972656 0.320312 C 14.941406 0.320312 18.46875 -3.625 18.46875 -8.882812 C 18.46875 -14.042969 14.878906 -17.921875 9.972656 -17.921875 C 5.066406 -17.921875 1.539062 -14.042969 1.539062 -8.882812 C 1.539062 -3.558594 5.066406 0.320312 9.972656 0.320312 Z M 9.972656 -1.539062 C 6.347656 -1.539062 3.625 -4.617188 3.625 -8.882812 C 3.625 -12.984375 6.316406 -16.0625 9.972656 -16.0625 C 13.660156 -16.0625 16.382812 -12.953125 16.382812 -8.882812 C 16.382812 -4.679688 13.625 -1.539062 9.972656 -1.539062 Z M 9.972656 -1.539062 "/></g></g></g><g fill="#0a1a44" fill-opacity="1"><g transform="translate(494.498378, 426.170521)"><g><path d="M 4.359375 0 L 4.359375 -8.046875 C 4.359375 -11.03125 4.808594 -12.824219 5.675781 -14.074219 C 6.539062 -15.324219 7.792969 -16.0625 9.425781 -16.0625 C 11.992188 -16.0625 13.304688 -13.980469 13.304688 -10.933594 L 13.304688 0 L 15.390625 0 L 15.390625 -8.046875 C 15.390625 -11.03125 15.871094 -12.824219 16.703125 -14.109375 C 17.601562 -15.484375 18.917969 -16.0625 20.457031 -16.0625 C 23.179688 -16.0625 24.269531 -13.882812 24.269531 -10.933594 L 24.269531 0 L 26.355469 0 L 26.355469 -11.445312 C 26.355469 -15.582031 24.496094 -17.921875 20.617188 -17.921875 C 18.210938 -17.921875 15.96875 -16.800781 14.84375 -14.234375 C 14.140625 -16.738281 12.085938 -17.921875 9.617188 -17.921875 C 7.054688 -17.921875 5.195312 -16.578125 4.359375 -14.972656 L 4.359375 -17.601562 L 2.277344 -17.601562 L 2.277344 0 Z M 4.359375 0 "/></g></g></g><g fill="#0a1a44" fill-opacity="1"><g transform="translate(523.290473, 426.170521)"><g><path d="M 4.359375 0 L 4.359375 -8.046875 C 4.359375 -11.03125 4.808594 -12.824219 5.675781 -14.074219 C 6.539062 -15.324219 7.792969 -16.0625 9.425781 -16.0625 C 11.992188 -16.0625 13.304688 -13.980469 13.304688 -10.933594 L 13.304688 0 L 15.390625 0 L 15.390625 -8.046875 C 15.390625 -11.03125 15.871094 -12.824219 16.703125 -14.109375 C 17.601562 -15.484375 18.917969 -16.0625 20.457031 -16.0625 C 23.179688 -16.0625 24.269531 -13.882812 24.269531 -10.933594 L 24.269531 0 L 26.355469 0 L 26.355469 -11.445312 C 26.355469 -15.582031 24.496094 -17.921875 20.617188 -17.921875 C 18.210938 -17.921875 15.96875 -16.800781 14.84375 -14.234375 C 14.140625 -16.738281 12.085938 -17.921875 9.617188 -17.921875 C 7.054688 -17.921875 5.195312 -16.578125 4.359375 -14.972656 L 4.359375 -17.601562 L 2.277344 -17.601562 L 2.277344 0 Z M 4.359375 0 "/></g></g></g><g fill="#0a1a44" fill-opacity="1"><g transform="translate(552.082569, 426.170521)"><g><path d="M 9.9375 0.320312 C 14.171875 0.320312 16.863281 -2.277344 17.890625 -5.546875 L 15.679688 -5.546875 C 14.878906 -3.335938 12.855469 -1.539062 9.9375 -1.539062 C 7.246094 -1.539062 5.066406 -3.238281 4.105469 -5.996094 C 3.816406 -6.796875 3.65625 -7.535156 3.589844 -8.433594 L 18.277344 -8.433594 C 18.277344 -8.785156 18.277344 -9.167969 18.242188 -9.523438 C 17.828125 -14.429688 14.75 -17.921875 9.90625 -17.921875 C 4.714844 -17.921875 1.539062 -13.660156 1.539062 -8.785156 C 1.539062 -3.589844 5.035156 0.320312 9.9375 0.320312 Z M 3.71875 -10.132812 C 3.816406 -10.835938 4.039062 -11.734375 4.359375 -12.441406 C 5.355469 -14.714844 7.375 -16.0625 9.9375 -16.0625 C 12.472656 -16.0625 14.652344 -14.683594 15.679688 -12.3125 C 16 -11.574219 16.128906 -10.933594 16.253906 -10.132812 Z M 3.71875 -10.132812 "/></g></g></g><g fill="#0a1a44" fill-opacity="1"><g transform="translate(572.153695, 426.170521)"><g><path d="M 4.359375 0 L 4.359375 -6.957031 C 4.359375 -10.996094 5.066406 -13.242188 6.316406 -14.621094 C 7.183594 -15.550781 8.335938 -16.0625 9.683594 -16.0625 C 11.125 -16.0625 12.214844 -15.519531 12.890625 -14.429688 C 13.402344 -13.59375 13.660156 -12.40625 13.660156 -10.902344 L 13.660156 0 L 15.742188 0 L 15.742188 -10.804688 C 15.742188 -11.992188 15.742188 -13.722656 14.878906 -15.230469 C 13.945312 -16.863281 12.3125 -17.921875 10.132812 -17.921875 C 7.664062 -17.921875 5.804688 -16.929688 4.359375 -14.652344 L 4.359375 -17.601562 L 2.277344 -17.601562 L 2.277344 0 Z M 4.359375 0 "/></g></g></g><g fill="#0a1a44" fill-opacity="1"><g transform="translate(590.333136, 426.170521)"><g><path d="M 9.296875 0.320312 C 11.894531 0.320312 14.042969 -1.027344 15.582031 -3.269531 L 15.582031 0 L 17.667969 0 L 17.667969 -24.464844 L 15.582031 -24.464844 L 15.582031 -14.332031 C 14.011719 -16.640625 11.863281 -17.921875 9.296875 -17.921875 C 4.714844 -17.921875 1.601562 -14.140625 1.601562 -8.785156 C 1.601562 -3.460938 4.714844 0.320312 9.296875 0.320312 Z M 9.492188 -1.539062 C 5.898438 -1.539062 3.6875 -4.679688 3.6875 -8.785156 C 3.6875 -12.921875 5.898438 -16.0625 9.492188 -16.0625 C 13.050781 -16.0625 15.648438 -12.953125 15.648438 -8.785156 C 15.648438 -4.648438 13.050781 -1.539062 9.492188 -1.539062 Z M 9.492188 -1.539062 "/></g></g></g><g fill="#0a1a44" fill-opacity="1"><g transform="translate(610.596638, 426.170521)"><g><path d="M 7.535156 0.320312 C 8.945312 0.320312 10.261719 -0.0625 11.382812 -0.738281 C 12.40625 -1.347656 13.242188 -2.210938 13.820312 -3.300781 L 13.820312 0 L 15.902344 0 L 15.902344 -10.515625 C 15.902344 -12.921875 15.324219 -14.8125 14.109375 -16.09375 C 12.984375 -17.28125 11.316406 -17.921875 9.074219 -17.921875 C 5.675781 -17.921875 2.726562 -15.96875 2.179688 -12.472656 L 4.265625 -12.472656 C 4.679688 -14.652344 6.667969 -16.0625 9.042969 -16.0625 C 10.675781 -16.0625 11.863281 -15.648438 12.632812 -14.78125 C 13.402344 -13.914062 13.753906 -12.695312 13.820312 -11.125 L 7.535156 -9.875 C 6.316406 -9.617188 4.679688 -9.234375 3.429688 -8.367188 C 2.339844 -7.597656 1.539062 -6.445312 1.539062 -4.679688 C 1.539062 -1.441406 4.070312 0.320312 7.535156 0.320312 Z M 7.375 -1.539062 C 5.257812 -1.539062 3.625 -2.660156 3.625 -4.679688 C 3.625 -5.644531 4.007812 -6.347656 4.617188 -6.863281 C 5.386719 -7.503906 6.507812 -7.824219 7.566406 -8.046875 L 13.820312 -9.363281 C 13.820312 -6.125 12.984375 -3.496094 10.386719 -2.246094 C 9.425781 -1.761719 8.433594 -1.539062 7.375 -1.539062 Z M 7.375 -1.539062 "/></g></g></g><g fill="#0a1a44" fill-opacity="1"><g transform="translate(628.872278, 426.170521)"><g><path d="M 9.90625 0 L 9.90625 -1.859375 L 8.144531 -1.859375 C 5.996094 -1.859375 5.804688 -2.820312 5.804688 -4.839844 L 5.804688 -15.742188 L 9.9375 -15.742188 L 9.9375 -17.601562 L 5.804688 -17.601562 L 5.804688 -24.464844 L 3.71875 -24.464844 L 3.71875 -17.601562 L 0.867188 -17.601562 L 0.867188 -15.742188 L 3.71875 -15.742188 L 3.71875 -4.425781 C 3.71875 -0.898438 5 0 7.664062 0 Z M 9.90625 0 "/></g></g></g><g fill="#0a1a44" fill-opacity="1"><g transform="translate(640.254479, 426.170521)"><g><path d="M 3.367188 -21.675781 C 4.230469 -21.675781 4.9375 -22.378906 4.9375 -23.246094 C 4.9375 -24.078125 4.230469 -24.785156 3.367188 -24.785156 C 2.5 -24.785156 1.796875 -24.078125 1.796875 -23.246094 C 1.796875 -22.378906 2.5 -21.675781 3.367188 -21.675781 Z M 4.390625 0 L 4.390625 -17.601562 L 2.308594 -17.601562 L 2.308594 0 Z M 4.390625 0 "/></g></g></g><g fill="#0a1a44" fill-opacity="1"><g transform="translate(647.244163, 426.170521)"><g><path d="M 9.972656 0.320312 C 14.941406 0.320312 18.46875 -3.625 18.46875 -8.882812 C 18.46875 -14.042969 14.878906 -17.921875 9.972656 -17.921875 C 5.066406 -17.921875 1.539062 -14.042969 1.539062 -8.882812 C 1.539062 -3.558594 5.066406 0.320312 9.972656 0.320312 Z M 9.972656 -1.539062 C 6.347656 -1.539062 3.625 -4.617188 3.625 -8.882812 C 3.625 -12.984375 6.316406 -16.0625 9.972656 -16.0625 C 13.660156 -16.0625 16.382812 -12.953125 16.382812 -8.882812 C 16.382812 -4.679688 13.625 -1.539062 9.972656 -1.539062 Z M 9.972656 -1.539062 "/></g></g></g><g fill="#0a1a44" fill-opacity="1"><g transform="translate(667.571798, 426.170521)"><g><path d="M 4.359375 0 L 4.359375 -6.957031 C 4.359375 -10.996094 5.066406 -13.242188 6.316406 -14.621094 C 7.183594 -15.550781 8.335938 -16.0625 9.683594 -16.0625 C 11.125 -16.0625 12.214844 -15.519531 12.890625 -14.429688 C 13.402344 -13.59375 13.660156 -12.40625 13.660156 -10.902344 L 13.660156 0 L 15.742188 0 L 15.742188 -10.804688 C 15.742188 -11.992188 15.742188 -13.722656 14.878906 -15.230469 C 13.945312 -16.863281 12.3125 -17.921875 10.132812 -17.921875 C 7.664062 -17.921875 5.804688 -16.929688 4.359375 -14.652344 L 4.359375 -17.601562 L 2.277344 -17.601562 L 2.277344 0 Z M 4.359375 0 "/></g></g></g><g fill="#0a1a44" fill-opacity="1"><g transform="translate(685.751239, 426.170521)"><g><path d="M 9.136719 0.320312 C 13.433594 0.320312 15.808594 -1.761719 15.808594 -4.90625 C 15.808594 -8.753906 12.3125 -9.457031 9.167969 -10.101562 C 6.574219 -10.613281 4.199219 -11.09375 4.199219 -13.242188 C 4.199219 -15.003906 5.769531 -16.0625 8.367188 -16.0625 C 10.996094 -16.0625 12.761719 -14.8125 13.144531 -12.472656 L 15.230469 -12.472656 C 14.683594 -15.773438 12.183594 -17.921875 8.367188 -17.921875 C 4.808594 -17.921875 2.117188 -16.191406 2.117188 -13.015625 C 2.117188 -9.585938 5.324219 -8.914062 8.367188 -8.304688 C 11.125 -7.757812 13.722656 -7.214844 13.722656 -4.714844 C 13.722656 -2.660156 11.992188 -1.539062 9.234375 -1.539062 C 5.738281 -1.539062 3.910156 -3.078125 3.558594 -5.546875 L 1.441406 -5.546875 C 1.890625 -1.890625 4.679688 0.320312 9.136719 0.320312 Z M 9.136719 0.320312 "/></g></g></g><g fill="#0a1a44" fill-opacity="1"><g transform="translate(703.449754, 426.170521)"><g/></g></g><g fill="#0a1a44" fill-opacity="1"><g transform="translate(712.71585, 426.170521)"><g><path d="M 7.855469 0 L 12.921875 -14.84375 L 17.890625 0 L 19.847656 0 L 24.945312 -17.601562 L 22.765625 -17.601562 L 18.789062 -3.140625 L 13.851562 -17.601562 L 11.925781 -17.601562 L 6.988281 -3.175781 L 3.046875 -17.601562 L 0.867188 -17.601562 L 5.929688 0 Z M 7.855469 0 "/></g></g></g><g fill="#0a1a44" fill-opacity="1"><g transform="translate(738.814694, 426.170521)"><g><path d="M 9.972656 0.320312 C 14.941406 0.320312 18.46875 -3.625 18.46875 -8.882812 C 18.46875 -14.042969 14.878906 -17.921875 9.972656 -17.921875 C 5.066406 -17.921875 1.539062 -14.042969 1.539062 -8.882812 C 1.539062 -3.558594 5.066406 0.320312 9.972656 0.320312 Z M 9.972656 -1.539062 C 6.347656 -1.539062 3.625 -4.617188 3.625 -8.882812 C 3.625 -12.984375 6.316406 -16.0625 9.972656 -16.0625 C 13.660156 -16.0625 16.382812 -12.953125 16.382812 -8.882812 C 16.382812 -4.679688 13.625 -1.539062 9.972656 -1.539062 Z M 9.972656 -1.539062 "/></g></g></g><g fill="#0a1a44" fill-opacity="1"><g transform="translate(759.142329, 426.170521)"><g><path d="M 7.757812 0.320312 C 10.292969 0.320312 12.121094 -0.707031 13.53125 -2.949219 L 13.53125 0 L 15.613281 0 L 15.613281 -17.601562 L 13.53125 -17.601562 L 13.53125 -10.644531 C 13.53125 -6.863281 12.921875 -4.457031 11.574219 -2.980469 C 10.707031 -2.050781 9.523438 -1.539062 8.207031 -1.539062 C 6.765625 -1.539062 5.675781 -2.085938 5 -3.175781 C 4.488281 -4.007812 4.230469 -5.195312 4.230469 -6.699219 L 4.230469 -17.601562 L 2.148438 -17.601562 L 2.148438 -6.796875 C 2.148438 -4.90625 2.40625 -3.429688 3.015625 -2.371094 C 4.007812 -0.640625 5.707031 0.320312 7.757812 0.320312 Z M 7.757812 0.320312 "/></g></g></g><g fill="#0a1a44" fill-opacity="1"><g transform="translate(777.32177, 426.170521)"><g><path d="M 7.46875 0 L 7.46875 -1.859375 L 6.316406 -1.859375 C 4.488281 -1.859375 4.296875 -2.726562 4.296875 -4.425781 L 4.296875 -24.464844 L 2.210938 -24.464844 L 2.210938 -4.105469 C 2.210938 -0.898438 3.496094 0 5.867188 0 Z M 7.46875 0 "/></g></g></g><g fill="#0a1a44" fill-opacity="1"><g transform="translate(786.042808, 426.170521)"><g><path d="M 9.296875 0.320312 C 11.894531 0.320312 14.042969 -1.027344 15.582031 -3.269531 L 15.582031 0 L 17.667969 0 L 17.667969 -24.464844 L 15.582031 -24.464844 L 15.582031 -14.332031 C 14.011719 -16.640625 11.863281 -17.921875 9.296875 -17.921875 C 4.714844 -17.921875 1.601562 -14.140625 1.601562 -8.785156 C 1.601562 -3.460938 4.714844 0.320312 9.296875 0.320312 Z M 9.492188 -1.539062 C 5.898438 -1.539062 3.6875 -4.679688 3.6875 -8.785156 C 3.6875 -12.921875 5.898438 -16.0625 9.492188 -16.0625 C 13.050781 -16.0625 15.648438 -12.953125 15.648438 -8.785156 C 15.648438 -4.648438 13.050781 -1.539062 9.492188 -1.539062 Z M 9.492188 -1.539062 "/></g></g></g><g fill="#0a1a44" fill-opacity="1"><g transform="translate(349.256669, 474.170516)"><g><path d="M 9.9375 0.320312 C 13.820312 0.320312 16.832031 -1.957031 17.570312 -5.546875 L 15.292969 -5.546875 C 14.78125 -3.175781 12.695312 -1.539062 9.9375 -1.539062 C 6.285156 -1.539062 3.625 -4.585938 3.625 -8.882812 C 3.625 -13.050781 6.285156 -16.0625 9.9375 -16.0625 C 12.503906 -16.0625 14.554688 -14.652344 15.199219 -12.472656 L 17.441406 -12.472656 C 16.640625 -15.773438 13.753906 -17.921875 9.9375 -17.921875 C 5.035156 -17.921875 1.539062 -14.042969 1.539062 -8.882812 C 1.539062 -3.558594 5.035156 0.320312 9.9375 0.320312 Z M 9.9375 0.320312 "/></g></g></g><g fill="#0a1a44" fill-opacity="1"><g transform="translate(368.494177, 474.170516)"><g><path d="M 9.972656 0.320312 C 14.941406 0.320312 18.46875 -3.625 18.46875 -8.882812 C 18.46875 -14.042969 14.878906 -17.921875 9.972656 -17.921875 C 5.066406 -17.921875 1.539062 -14.042969 1.539062 -8.882812 C 1.539062 -3.558594 5.066406 0.320312 9.972656 0.320312 Z M 9.972656 -1.539062 C 6.347656 -1.539062 3.625 -4.617188 3.625 -8.882812 C 3.625 -12.984375 6.316406 -16.0625 9.972656 -16.0625 C 13.660156 -16.0625 16.382812 -12.953125 16.382812 -8.882812 C 16.382812 -4.679688 13.625 -1.539062 9.972656 -1.539062 Z M 9.972656 -1.539062 "/></g></g></g><g fill="#0a1a44" fill-opacity="1"><g transform="translate(388.821802, 474.170516)"><g><path d="M 4.359375 0 L 4.359375 -8.046875 C 4.359375 -11.03125 4.808594 -12.824219 5.675781 -14.074219 C 6.539062 -15.324219 7.792969 -16.0625 9.425781 -16.0625 C 11.992188 -16.0625 13.304688 -13.980469 13.304688 -10.933594 L 13.304688 0 L 15.390625 0 L 15.390625 -8.046875 C 15.390625 -11.03125 15.871094 -12.824219 16.703125 -14.109375 C 17.601562 -15.484375 18.917969 -16.0625 20.457031 -16.0625 C 23.179688 -16.0625 24.269531 -13.882812 24.269531 -10.933594 L 24.269531 0 L 26.355469 0 L 26.355469 -11.445312 C 26.355469 -15.582031 24.496094 -17.921875 20.617188 -17.921875 C 18.210938 -17.921875 15.96875 -16.800781 14.84375 -14.234375 C 14.140625 -16.738281 12.085938 -17.921875 9.617188 -17.921875 C 7.054688 -17.921875 5.195312 -16.578125 4.359375 -14.972656 L 4.359375 -17.601562 L 2.277344 -17.601562 L 2.277344 0 Z M 4.359375 0 "/></g></g></g><g fill="#0a1a44" fill-opacity="1"><g transform="translate(417.613904, 474.170516)"><g><path d="M 9.9375 0.320312 C 14.171875 0.320312 16.863281 -2.277344 17.890625 -5.546875 L 15.679688 -5.546875 C 14.878906 -3.335938 12.855469 -1.539062 9.9375 -1.539062 C 7.246094 -1.539062 5.066406 -3.238281 4.105469 -5.996094 C 3.816406 -6.796875 3.65625 -7.535156 3.589844 -8.433594 L 18.277344 -8.433594 C 18.277344 -8.785156 18.277344 -9.167969 18.242188 -9.523438 C 17.828125 -14.429688 14.75 -17.921875 9.90625 -17.921875 C 4.714844 -17.921875 1.539062 -13.660156 1.539062 -8.785156 C 1.539062 -3.589844 5.035156 0.320312 9.9375 0.320312 Z M 3.71875 -10.132812 C 3.816406 -10.835938 4.039062 -11.734375 4.359375 -12.441406 C 5.355469 -14.714844 7.375 -16.0625 9.9375 -16.0625 C 12.472656 -16.0625 14.652344 -14.683594 15.679688 -12.3125 C 16 -11.574219 16.128906 -10.933594 16.253906 -10.132812 Z M 3.71875 -10.132812 "/></g></g></g><g fill="#0a1a44" fill-opacity="1"><g transform="translate(437.68503, 474.170516)"><g/></g></g><g fill="#0a1a44" fill-opacity="1"><g transform="translate(446.951127, 474.170516)"><g><path d="M 7.855469 0 L 12.921875 -14.84375 L 17.890625 0 L 19.847656 0 L 24.945312 -17.601562 L 22.765625 -17.601562 L 18.789062 -3.140625 L 13.851562 -17.601562 L 11.925781 -17.601562 L 6.988281 -3.175781 L 3.046875 -17.601562 L 0.867188 -17.601562 L 5.929688 0 Z M 7.855469 0 "/></g></g></g><g fill="#0a1a44" fill-opacity="1"><g transform="translate(473.049982, 474.170516)"><g><path d="M 7.535156 0.320312 C 8.945312 0.320312 10.261719 -0.0625 11.382812 -0.738281 C 12.40625 -1.347656 13.242188 -2.210938 13.820312 -3.300781 L 13.820312 0 L 15.902344 0 L 15.902344 -10.515625 C 15.902344 -12.921875 15.324219 -14.8125 14.109375 -16.09375 C 12.984375 -17.28125 11.316406 -17.921875 9.074219 -17.921875 C 5.675781 -17.921875 2.726562 -15.96875 2.179688 -12.472656 L 4.265625 -12.472656 C 4.679688 -14.652344 6.667969 -16.0625 9.042969 -16.0625 C 10.675781 -16.0625 11.863281 -15.648438 12.632812 -14.78125 C 13.402344 -13.914062 13.753906 -12.695312 13.820312 -11.125 L 7.535156 -9.875 C 6.316406 -9.617188 4.679688 -9.234375 3.429688 -8.367188 C 2.339844 -7.597656 1.539062 -6.445312 1.539062 -4.679688 C 1.539062 -1.441406 4.070312 0.320312 7.535156 0.320312 Z M 7.375 -1.539062 C 5.257812 -1.539062 3.625 -2.660156 3.625 -4.679688 C 3.625 -5.644531 4.007812 -6.347656 4.617188 -6.863281 C 5.386719 -7.503906 6.507812 -7.824219 7.566406 -8.046875 L 13.820312 -9.363281 C 13.820312 -6.125 12.984375 -3.496094 10.386719 -2.246094 C 9.425781 -1.761719 8.433594 -1.539062 7.375 -1.539062 Z M 7.375 -1.539062 "/></g></g></g><g fill="#0a1a44" fill-opacity="1"><g transform="translate(491.325611, 474.170516)"><g><path d="M 3.367188 -21.675781 C 4.230469 -21.675781 4.9375 -22.378906 4.9375 -23.246094 C 4.9375 -24.078125 4.230469 -24.785156 3.367188 -24.785156 C 2.5 -24.785156 1.796875 -24.078125 1.796875 -23.246094 C 1.796875 -22.378906 2.5 -21.675781 3.367188 -21.675781 Z M 4.390625 0 L 4.390625 -17.601562 L 2.308594 -17.601562 L 2.308594 0 Z M 4.390625 0 "/></g></g></g><g fill="#0a1a44" fill-opacity="1"><g transform="translate(498.315272, 474.170516)"><g><path d="M 9.90625 0 L 9.90625 -1.859375 L 8.144531 -1.859375 C 5.996094 -1.859375 5.804688 -2.820312 5.804688 -4.839844 L 5.804688 -15.742188 L 9.9375 -15.742188 L 9.9375 -17.601562 L 5.804688 -17.601562 L 5.804688 -24.464844 L 3.71875 -24.464844 L 3.71875 -17.601562 L 0.867188 -17.601562 L 0.867188 -15.742188 L 3.71875 -15.742188 L 3.71875 -4.425781 C 3.71875 -0.898438 5 0 7.664062 0 Z M 9.90625 0 "/></g></g></g><g fill="#0a1a44" fill-opacity="1"><g transform="translate(509.697484, 474.170516)"><g><path d="M 3.367188 -21.675781 C 4.230469 -21.675781 4.9375 -22.378906 4.9375 -23.246094 C 4.9375 -24.078125 4.230469 -24.785156 3.367188 -24.785156 C 2.5 -24.785156 1.796875 -24.078125 1.796875 -23.246094 C 1.796875 -22.378906 2.5 -21.675781 3.367188 -21.675781 Z M 4.390625 0 L 4.390625 -17.601562 L 2.308594 -17.601562 L 2.308594 0 Z M 4.390625 0 "/></g></g></g><g fill="#0a1a44" fill-opacity="1"><g transform="translate(516.687146, 474.170516)"><g><path d="M 4.359375 0 L 4.359375 -6.957031 C 4.359375 -10.996094 5.066406 -13.242188 6.316406 -14.621094 C 7.183594 -15.550781 8.335938 -16.0625 9.683594 -16.0625 C 11.125 -16.0625 12.214844 -15.519531 12.890625 -14.429688 C 13.402344 -13.59375 13.660156 -12.40625 13.660156 -10.902344 L 13.660156 0 L 15.742188 0 L 15.742188 -10.804688 C 15.742188 -11.992188 15.742188 -13.722656 14.878906 -15.230469 C 13.945312 -16.863281 12.3125 -17.921875 10.132812 -17.921875 C 7.664062 -17.921875 5.804688 -16.929688 4.359375 -14.652344 L 4.359375 -17.601562 L 2.277344 -17.601562 L 2.277344 0 Z M 4.359375 0 "/></g></g></g><g fill="#0a1a44" fill-opacity="1"><g transform="translate(534.866587, 474.170516)"><g><path d="M 9.875 7.183594 C 14.683594 7.183594 17.667969 5.160156 17.667969 -0.222656 L 17.667969 -17.601562 L 15.582031 -17.601562 L 15.582031 -14.332031 C 14.042969 -16.578125 11.894531 -17.921875 9.296875 -17.921875 C 4.714844 -17.921875 1.601562 -14.140625 1.601562 -8.847656 C 1.601562 -3.496094 4.714844 0.320312 9.296875 0.320312 C 11.863281 0.320312 14.011719 -0.960938 15.582031 -3.269531 L 15.582031 0.128906 C 15.582031 3.460938 13.914062 5.324219 9.84375 5.324219 C 6.507812 5.324219 4.90625 4.136719 4.199219 1.796875 L 2.117188 1.796875 C 3.140625 5.675781 5.996094 7.183594 9.875 7.183594 Z M 9.492188 -1.539062 C 5.898438 -1.539062 3.6875 -4.679688 3.6875 -8.785156 C 3.6875 -12.921875 5.835938 -16.0625 9.492188 -16.0625 C 13.050781 -16.0625 15.648438 -12.953125 15.648438 -8.785156 C 15.648438 -4.648438 13.050781 -1.539062 9.492188 -1.539062 Z M 9.492188 -1.539062 "/></g></g></g><g fill="#0a1a44" fill-opacity="1"><g transform="translate(555.098022, 474.170516)"><g/></g></g><g fill="#0a1a44" fill-opacity="1"><g transform="translate(564.364119, 474.170516)"><g><path d="M 4.359375 0 L 4.359375 -8.046875 C 4.359375 -11.03125 4.808594 -12.824219 5.675781 -14.074219 C 6.539062 -15.324219 7.792969 -16.0625 9.425781 -16.0625 C 11.992188 -16.0625 13.304688 -13.980469 13.304688 -10.933594 L 13.304688 0 L 15.390625 0 L 15.390625 -8.046875 C 15.390625 -11.03125 15.871094 -12.824219 16.703125 -14.109375 C 17.601562 -15.484375 18.917969 -16.0625 20.457031 -16.0625 C 23.179688 -16.0625 24.269531 -13.882812 24.269531 -10.933594 L 24.269531 0 L 26.355469 0 L 26.355469 -11.445312 C 26.355469 -15.582031 24.496094 -17.921875 20.617188 -17.921875 C 18.210938 -17.921875 15.96875 -16.800781 14.84375 -14.234375 C 14.140625 -16.738281 12.085938 -17.921875 9.617188 -17.921875 C 7.054688 -17.921875 5.195312 -16.578125 4.359375 -14.972656 L 4.359375 -17.601562 L 2.277344 -17.601562 L 2.277344 0 Z M 4.359375 0 "/></g></g></g><g fill="#0a1a44" fill-opacity="1"><g transform="translate(593.156215, 474.170516)"><g><path d="M 3.367188 -21.675781 C 4.230469 -21.675781 4.9375 -22.378906 4.9375 -23.246094 C 4.9375 -24.078125 4.230469 -24.785156 3.367188 -24.785156 C 2.5 -24.785156 1.796875 -24.078125 1.796875 -23.246094 C 1.796875 -22.378906 2.5 -21.675781 3.367188 -21.675781 Z M 4.390625 0 L 4.390625 -17.601562 L 2.308594 -17.601562 L 2.308594 0 Z M 4.390625 0 "/></g></g></g><g fill="#0a1a44" fill-opacity="1"><g transform="translate(600.145876, 474.170516)"><g><path d="M 4.359375 0 L 4.359375 -6.957031 C 4.359375 -10.996094 5.066406 -13.242188 6.316406 -14.621094 C 7.183594 -15.550781 8.335938 -16.0625 9.683594 -16.0625 C 11.125 -16.0625 12.214844 -15.519531 12.890625 -14.429688 C 13.402344 -13.59375 13.660156 -12.40625 13.660156 -10.902344 L 13.660156 0 L 15.742188 0 L 15.742188 -10.804688 C 15.742188 -11.992188 15.742188 -13.722656 14.878906 -15.230469 C 13.945312 -16.863281 12.3125 -17.921875 10.132812 -17.921875 C 7.664062 -17.921875 5.804688 -16.929688 4.359375 -14.652344 L 4.359375 -17.601562 L 2.277344 -17.601562 L 2.277344 0 Z M 4.359375 0 "/></g></g></g><g fill="#0a1a44" fill-opacity="1"><g transform="translate(618.325317, 474.170516)"><g><path d="M 7.757812 0.320312 C 10.292969 0.320312 12.121094 -0.707031 13.53125 -2.949219 L 13.53125 0 L 15.613281 0 L 15.613281 -17.601562 L 13.53125 -17.601562 L 13.53125 -10.644531 C 13.53125 -6.863281 12.921875 -4.457031 11.574219 -2.980469 C 10.707031 -2.050781 9.523438 -1.539062 8.207031 -1.539062 C 6.765625 -1.539062 5.675781 -2.085938 5 -3.175781 C 4.488281 -4.007812 4.230469 -5.195312 4.230469 -6.699219 L 4.230469 -17.601562 L 2.148438 -17.601562 L 2.148438 -6.796875 C 2.148438 -4.90625 2.40625 -3.429688 3.015625 -2.371094 C 4.007812 -0.640625 5.707031 0.320312 7.757812 0.320312 Z M 7.757812 0.320312 "/></g></g></g><g fill="#0a1a44" fill-opacity="1"><g transform="translate(636.504759, 474.170516)"><g><path d="M 9.90625 0 L 9.90625 -1.859375 L 8.144531 -1.859375 C 5.996094 -1.859375 5.804688 -2.820312 5.804688 -4.839844 L 5.804688 -15.742188 L 9.9375 -15.742188 L 9.9375 -17.601562 L 5.804688 -17.601562 L 5.804688 -24.464844 L 3.71875 -24.464844 L 3.71875 -17.601562 L 0.867188 -17.601562 L 0.867188 -15.742188 L 3.71875 -15.742188 L 3.71875 -4.425781 C 3.71875 -0.898438 5 0 7.664062 0 Z M 9.90625 0 "/></g></g></g><g fill="#0a1a44" fill-opacity="1"><g transform="translate(647.886982, 474.170516)"><g><path d="M 9.9375 0.320312 C 14.171875 0.320312 16.863281 -2.277344 17.890625 -5.546875 L 15.679688 -5.546875 C 14.878906 -3.335938 12.855469 -1.539062 9.9375 -1.539062 C 7.246094 -1.539062 5.066406 -3.238281 4.105469 -5.996094 C 3.816406 -6.796875 3.65625 -7.535156 3.589844 -8.433594 L 18.277344 -8.433594 C 18.277344 -8.785156 18.277344 -9.167969 18.242188 -9.523438 C 17.828125 -14.429688 14.75 -17.921875 9.90625 -17.921875 C 4.714844 -17.921875 1.539062 -13.660156 1.539062 -8.785156 C 1.539062 -3.589844 5.035156 0.320312 9.9375 0.320312 Z M 3.71875 -10.132812 C 3.816406 -10.835938 4.039062 -11.734375 4.359375 -12.441406 C 5.355469 -14.714844 7.375 -16.0625 9.9375 -16.0625 C 12.472656 -16.0625 14.652344 -14.683594 15.679688 -12.3125 C 16 -11.574219 16.128906 -10.933594 16.253906 -10.132812 Z M 3.71875 -10.132812 "/></g></g></g><g fill="#0a1a44" fill-opacity="1"><g transform="translate(667.958109, 474.170516)"><g><path d="M 9.136719 0.320312 C 13.433594 0.320312 15.808594 -1.761719 15.808594 -4.90625 C 15.808594 -8.753906 12.3125 -9.457031 9.167969 -10.101562 C 6.574219 -10.613281 4.199219 -11.09375 4.199219 -13.242188 C 4.199219 -15.003906 5.769531 -16.0625 8.367188 -16.0625 C 10.996094 -16.0625 12.761719 -14.8125 13.144531 -12.472656 L 15.230469 -12.472656 C 14.683594 -15.773438 12.183594 -17.921875 8.367188 -17.921875 C 4.808594 -17.921875 2.117188 -16.191406 2.117188 -13.015625 C 2.117188 -9.585938 5.324219 -8.914062 8.367188 -8.304688 C 11.125 -7.757812 13.722656 -7.214844 13.722656 -4.714844 C 13.722656 -2.660156 11.992188 -1.539062 9.234375 -1.539062 C 5.738281 -1.539062 3.910156 -3.078125 3.558594 -5.546875 L 1.441406 -5.546875 C 1.890625 -1.890625 4.679688 0.320312 9.136719 0.320312 Z M 9.136719 0.320312 "/></g></g></g><g fill="#0a1a44" fill-opacity="1"><g transform="translate(685.656623, 474.170516)"><g><path d="M 4.554688 0.320312 C 5.386719 0.320312 6.09375 -0.417969 6.09375 -1.316406 C 6.09375 -2.148438 5.386719 -2.886719 4.554688 -2.886719 C 3.65625 -2.886719 2.886719 -2.179688 2.886719 -1.316406 C 2.886719 -0.417969 3.625 0.320312 4.554688 0.320312 Z M 4.554688 0.320312 "/></g></g></g><g fill="#0a1a44" fill-opacity="1"><g transform="translate(522.084774, 522.17051)"><g/></g></g></svg>